<?xml version="1.0" encoding="UTF-8"?>
<svg id="Layer_1" xmlns="http://www.w3.org/2000/svg" version="1.1" viewBox="0 0 2000.969 284.28">
  <!-- Generator: Adobe Illustrator 30.2.1, SVG Export Plug-In . SVG Version: 2.1.1 Build 1)  -->
  <defs>
    <style>
      .st0 {
        fill: #e59520;
      }

      .st1 {
        fill: #55aedd;
      }

      .st2 {
        fill: #fff;
      }
    </style>
  </defs>
  <path class="st2" d="M0,23.005c0-3.546,2.838-6.737,6.738-6.737h144.309c3.9,0,6.736,3.191,6.736,6.737v29.074c0,3.546-2.836,6.737-6.736,6.737H46.094v66.658h87.58c3.545,0,6.736,3.191,6.736,6.737v29.074c0,3.546-3.191,6.737-6.736,6.737H46.094v89.706c0,3.545-3.189,6.736-6.736,6.736H6.738c-3.9,0-6.738-3.191-6.738-6.736V23.005ZM235.43,87.891l-31.203,6.737c-3.191.709-6.736-1.419-7.09-4.609l-2.129-17.374c-.354-2.837.355-4.964,1.773-6.383l51.059-42.902h24.818c3.547,0,6.383,3.191,6.383,6.736v227.634c0,3.545-2.836,6.736-6.383,6.736h-30.492c-3.9,0-6.736-3.191-6.736-6.736V87.891ZM362.006,23.005c0-3.546,2.836-6.737,6.736-6.737h101.406c42.549,0,77.297,34.039,77.297,76.232,0,32.62-21.629,59.213-52.477,71.623l48.576,90.061c2.482,4.609,0,10.282-6.027,10.282h-37.23c-3.191,0-4.965-1.772-5.674-3.191l-47.156-93.96h-39.357v90.415c0,3.545-3.191,6.736-6.736,6.736h-32.621c-3.9,0-6.736-3.191-6.736-6.736V23.005ZM466.248,129.375c18.793,0,35.104-16.31,35.104-36.166,0-18.792-16.311-34.393-35.104-34.393h-57.795v70.559h57.795ZM596.721,227.591l18.082-17.374c3.191-2.837,6.383-2.837,9.219,0,1.064,1.418,21.984,19.146,43.613,19.146,19.146,0,37.584-13.828,37.584-33.329,0-18.438-17.02-35.103-48.932-35.103h-19.855c-3.9,0-6.736-2.836-6.736-7.091v-22.338c0-4.609,2.482-7.092,6.736-7.092h19.855c29.074,0,43.967-14.537,43.967-32.62,0-19.501-16.311-32.62-34.393-32.62-18.438,0-29.783,9.928-35.812,17.02-2.48,2.836-6.381,3.19-9.572.354l-17.375-16.311c-2.836-2.482-2.48-6.736,0-9.219,0,0,26.947-31.202,66.66-31.202,41.129,0,75.523,25.175,75.523,64.886,0,27.302-20.566,47.867-36.521,55.313v1.063c16.664,7.091,42.902,26.238,42.902,57.795,0,40.065-32.619,69.141-81.551,69.141-44.32,0-65.949-22.338-73.75-31.557-2.127-2.482-1.773-6.383.355-8.864Z"/>
  <g>
    <path class="st1" d="M968.357,14.505v255.28c0,7.99-6.5,14.5-14.5,14.5s-14.5-6.51-14.5-14.5V14.505c0-8,6.51-14.5,14.5-14.5s14.5,6.5,14.5,14.5Z"/>
    <path class="st1" d="M1012.457,49.315v185.65c0,8-6.5,14.5-14.5,14.5s-14.5-6.5-14.5-14.5V49.315c0-8,6.51-14.5,14.5-14.5s14.5,6.5,14.5,14.5Z"/>
    <path class="st1" d="M1056.557,84.125v116.03c0,8-6.51,14.5-14.5,14.5s-14.5-6.5-14.5-14.5v-116.03c0-8,6.5-14.5,14.5-14.5s14.5,6.5,14.5,14.5Z"/>
    <path class="st1" d="M1100.657,60.915v162.45c0,8-6.51,14.5-14.5,14.5s-14.5-6.5-14.5-14.5V60.915c0-7.99,6.5-14.5,14.5-14.5s14.5,6.51,14.5,14.5Z"/>
    <path class="st1" d="M924.257,49.315v185.65c0,8-6.5,14.5-14.5,14.5s-14.5-6.5-14.5-14.5V49.315c0-8,6.51-14.5,14.5-14.5s14.5,6.5,14.5,14.5Z"/>
    <path class="st1" d="M880.157,84.125v116.03c0,8-6.5,14.5-14.5,14.5s-14.5-6.5-14.5-14.5v-116.03c0-8,6.51-14.5,14.5-14.5s14.5,6.5,14.5,14.5Z"/>
    <path class="st1" d="M836.057,60.915v162.45c0,8-6.5,14.5-14.5,14.5s-14.5-6.5-14.5-14.5V60.915c0-7.99,6.51-14.5,14.5-14.5s14.5,6.51,14.5,14.5Z"/>
  </g>
  <path class="st0" d="M1157.819,24.778c0-3.546,2.838-6.737,6.738-6.737h81.195c42.193,0,74.814,28.366,74.814,65.596,0,27.302-22.338,48.575-39.004,56.376,18.793,6.028,46.096,25.175,46.096,57.795,0,39.712-34.039,68.432-77.297,68.432h-85.805c-3.9,0-6.738-3.191-6.738-6.736V24.778ZM1241.499,122.284c18.082,0,30.492-14.183,30.492-31.911s-12.41-30.138-30.492-30.138h-37.939v62.049h37.939ZM1246.461,224.4c17.729,0,31.912-13.828,31.912-32.266,0-17.729-17.729-30.848-36.166-30.848h-38.648v63.113h42.902ZM1394.309,24.778c0-3.546,2.836-6.737,6.736-6.737h144.309c3.9,0,6.738,3.191,6.738,6.737v29.074c0,3.546-2.838,6.737-6.738,6.737h-104.951v58.149h87.578c3.545,0,6.736,3.19,6.736,6.736v29.429c0,3.9-3.191,6.737-6.736,6.737h-87.578v62.05h104.951c3.9,0,6.738,3.19,6.738,6.736v29.075c0,3.545-2.838,6.736-6.738,6.736h-144.309c-3.9,0-6.736-3.191-6.736-6.736V24.778ZM1588.252,258.793l110.271-238.625c1.064-2.127,2.836-3.899,6.027-3.899h3.545c3.547,0,4.965,1.772,6.029,3.899l109.207,238.625c2.127,4.609-.709,9.219-6.029,9.219h-30.846c-5.32,0-7.801-2.127-10.283-7.092l-17.373-38.293h-106.018l-17.373,38.293c-1.418,3.546-4.609,7.092-10.283,7.092h-30.848c-5.318,0-8.154-4.609-6.027-9.219ZM1741.426,183.27l-35.457-78.005h-1.062l-34.748,78.005h71.268ZM1893.536,60.59h-54.25c-3.898,0-6.736-3.191-6.736-6.737v-29.074c0-3.546,2.838-6.737,6.736-6.737h154.947c3.9,0,6.736,3.191,6.736,6.737v29.074c0,3.546-2.836,6.737-6.736,6.737h-54.248v198.913c0,3.545-3.191,6.736-6.738,6.736h-32.975c-3.545,0-6.736-3.191-6.736-6.736V60.59Z"/>
</svg>