<?xml version="1.0" encoding="UTF-8"?>
<svg id="Layer_1" xmlns="http://www.w3.org/2000/svg" xmlns:xlink="http://www.w3.org/1999/xlink" version="1.1" viewBox="0 0 2343.045 535.432">
  <!-- Generator: Adobe Illustrator 30.2.1, SVG Export Plug-In . SVG Version: 2.1.1 Build 1)  -->
  <defs>
    <style>
      .st0 {
        fill: url(#linear-gradient2);
      }

      .st1 {
        fill: url(#linear-gradient1);
      }

      .st2 {
        fill: url(#radial-gradient);
      }

      .st3 {
        fill: url(#linear-gradient);
      }

      .st4 {
        fill: #fff;
      }
    </style>
    <linearGradient id="linear-gradient" x1="620.975" y1="117.901" x2="793.518" y2="-180.951" gradientTransform="translate(-545.342 290.672) rotate(-4.856)" gradientUnits="userSpaceOnUse">
      <stop offset="0" stop-color="#009188"/>
      <stop offset="1" stop-color="#007bc4"/>
    </linearGradient>
    <linearGradient id="linear-gradient1" x1="10868.88" y1="2958.368" x2="11042.919" y2="2656.923" gradientTransform="translate(11539.772 2556.8) rotate(-153.904) scale(1 -1)" gradientUnits="userSpaceOnUse">
      <stop offset="0" stop-color="#deffac"/>
      <stop offset="1" stop-color="#8fc8e7"/>
    </linearGradient>
    <linearGradient id="linear-gradient2" x1="1278.548" y1="-693.973" x2="1379.282" y2="-693.973" gradientTransform="translate(-816.84 975.667) rotate(-11.485)" xlink:href="#linear-gradient"/>
    <radialGradient id="radial-gradient" cx="-507.17" cy="1315.506" fx="-507.17" fy="1166.669" r="148.898" gradientTransform="translate(-462.725 1690.402) rotate(-169.698) scale(1.001 1.048) skewX(.542)" gradientUnits="userSpaceOnUse">
      <stop offset=".159" stop-color="#ebe1a3"/>
      <stop offset=".243" stop-color="#ebdf96"/>
      <stop offset=".395" stop-color="#eedc75"/>
      <stop offset=".598" stop-color="#f1d741"/>
      <stop offset=".658" stop-color="#f3d630"/>
      <stop offset=".995" stop-color="#f3d630"/>
    </radialGradient>
  </defs>
  <g>
    <path class="st3" d="M316.697,105.798c-37.703,124.422-167.35,232.91-298.749,218.058-19.188-3.649-20.283-20.828-15.672-37.06C31.864,162.855,152.312,70.533,276.989,74.429c21.882.057,44.988,2.747,39.708,31.368Z"/>
    <path class="st1" d="M349.717,112.154c-8.765,129.993,73.792,279.334,201.506,314.364,19.172,3.736,26.255-11.869,27.685-28.713,16.157-126.526-63.53-257.377-181.112-300.119-20.416-8.086-42.901-14.173-48.079,14.468Z"/>
    <path class="st0" d="M400.519,44.343c1.708-41.624-83.95-62.735-103.871-23.736-3.572,6.996-.071,15.53,6.922,17.387,25.852,6.863,56.168,11.194,82.282,18.292,7.128,1.934,14.336-3.926,14.667-11.944Z"/>
    <path class="st2" d="M378.911,353.267c-46.405,267.616-227.024,226.916-174.919-34.206,44.206-27.89,81.981-64.979,110.028-108.046,11.008,50.816,33.273,99.674,64.892,142.252Z"/>
  </g>
  <g>
    <path class="st4" d="M755.273,169.256c0-2.975,2.379-5.652,5.652-5.652h121.068c3.271,0,5.652,2.677,5.652,5.652v24.391c0,2.975-2.381,5.652-5.652,5.652h-88.049v55.924h73.473c2.975,0,5.652,2.677,5.652,5.652v24.392c0,2.974-2.677,5.652-5.652,5.652h-73.473v75.258c0,2.975-2.678,5.652-5.652,5.652h-27.367c-3.272,0-5.652-2.677-5.652-5.652v-196.92Z"/>
    <path class="st4" d="M952.779,223.691l-26.177,5.652c-2.677.595-5.652-1.189-5.949-3.867l-1.785-14.576c-.297-2.379.297-4.164,1.488-5.353l42.834-35.993h20.822c2.975,0,5.355,2.677,5.355,5.652v190.971c0,2.975-2.379,5.652-5.355,5.652h-25.581c-3.272,0-5.652-2.677-5.652-5.652v-142.485Z"/>
    <path class="st4" d="M1058.965,169.256c0-2.975,2.379-5.652,5.652-5.652h85.075c35.696,0,64.847,28.556,64.847,63.954,0,27.367-18.146,49.676-44.024,60.088l40.752,75.555c2.082,3.868,0,8.627-5.056,8.627h-31.234c-2.677,0-4.164-1.488-4.759-2.677l-39.563-78.828h-33.018v75.853c0,2.975-2.678,5.652-5.652,5.652h-27.367c-3.272,0-5.652-2.677-5.652-5.652v-196.92ZM1146.419,258.494c15.765,0,29.449-13.683,29.449-30.34,0-15.766-13.684-28.855-29.449-28.855h-48.486v59.195h48.486Z"/>
    <path class="st4" d="M1255.873,340.892l15.171-14.576c2.677-2.379,5.355-2.379,7.734,0,.892,1.19,18.443,16.064,36.588,16.064,16.063,0,31.532-11.602,31.532-27.962,0-15.468-14.279-29.449-41.05-29.449h-16.658c-3.271,0-5.652-2.379-5.652-5.949v-18.74c0-3.867,2.082-5.949,5.652-5.949h16.658c24.392,0,36.885-12.196,36.885-27.366,0-16.361-13.683-27.366-28.854-27.366-15.468,0-24.987,8.329-30.044,14.278-2.082,2.379-5.353,2.677-8.031.297l-14.575-13.683c-2.381-2.082-2.082-5.652,0-7.734,0,0,22.606-26.177,55.923-26.177,34.506,0,63.359,21.12,63.359,54.436,0,22.905-17.253,40.157-30.639,46.404v.893c13.98,5.949,35.993,22.012,35.993,48.486,0,33.614-27.366,58.006-68.417,58.006-37.182,0-55.328-18.74-61.872-26.474-1.785-2.082-1.488-5.355.297-7.437Z"/>
    <path class="st4" d="M1442.072,169.256c0-2.975,2.379-5.652,5.652-5.652h121.068c3.272,0,5.651,2.677,5.651,5.652v24.391c0,2.975-2.378,5.652-5.651,5.652h-88.049v55.924h73.473c2.975,0,5.653,2.677,5.653,5.652v24.392c0,2.974-2.678,5.652-5.653,5.652h-73.473v75.258c0,2.975-2.678,5.652-5.652,5.652h-27.367c-3.272,0-5.652-2.677-5.652-5.652v-196.92Z"/>
    <path class="st4" d="M1624.705,169.256c0-2.975,2.381-5.652,5.653-5.652h27.366c2.975,0,5.651,2.677,5.651,5.652v166.876h75.853c3.272,0,5.653,2.678,5.653,5.652v24.392c0,2.975-2.381,5.652-5.653,5.652h-108.87c-3.272,0-5.653-2.677-5.653-5.652v-196.92Z"/>
    <path class="st4" d="M1815.074,271.582l-67.822-99.352c-2.381-3.867,0-8.626,4.759-8.626h30.341c2.381,0,3.867,1.486,4.759,2.677l47.595,68.417,47.593-68.417c.892-1.19,2.381-2.677,4.759-2.677h30.641c4.759,0,7.137,4.759,4.759,8.626l-68.714,99.055v94.891c0,2.975-2.678,5.652-5.653,5.652h-27.366c-3.272,0-5.651-2.677-5.651-5.652v-94.594Z"/>
    <path class="st4" d="M1961.416,325.721c13.387,0,24.691,11.304,24.691,24.689s-11.304,24.392-24.691,24.392-24.391-11.006-24.391-24.392,11.006-24.689,24.391-24.689Z"/>
    <path class="st4" d="M2036.073,169.256c0-2.975,2.678-5.652,5.653-5.652h27.663c2.975,0,5.651,2.677,5.651,5.652v196.92c0,2.975-2.676,5.652-5.651,5.652h-27.663c-2.975,0-5.653-2.677-5.653-5.652v-196.92Z"/>
    <path class="st4" d="M2235.958,160.629c59.493,0,107.086,47.891,107.086,107.384s-47.593,106.79-107.086,106.79-106.789-47.297-106.789-106.79,47.298-107.384,106.789-107.384ZM2235.958,336.132c37.481,0,68.417-30.639,68.417-68.119s-30.936-68.714-68.417-68.714-68.119,31.234-68.119,68.714,30.639,68.119,68.119,68.119Z"/>
  </g>
</svg>