<?xml version="1.0" encoding="UTF-8"?>
<svg id="Layer_1" xmlns="http://www.w3.org/2000/svg" xmlns:xlink="http://www.w3.org/1999/xlink" version="1.1" viewBox="0 0 4431.72 645.27">
  <!-- Generator: Adobe Illustrator 30.2.1, SVG Export Plug-In . SVG Version: 2.1.1 Build 1)  -->
  <defs>
    <style>
      .st0 {
        fill: url(#linear-gradient2);
      }

      .st1 {
        fill: url(#linear-gradient1);
      }

      .st2 {
        fill: url(#radial-gradient);
      }

      .st3 {
        fill: url(#linear-gradient);
      }

      .st4 {
        fill: #fff;
      }

      .st5 {
        fill: url(#New_Gradient_Swatch_1);
      }
    </style>
    <linearGradient id="linear-gradient" x1="621.45" y1="642.91" x2="829.39" y2="1003.07" gradientTransform="translate(-464.31 1121.75) rotate(-4.86) scale(1 -1)" gradientUnits="userSpaceOnUse">
      <stop offset="0" stop-color="#009189"/>
      <stop offset="1" stop-color="#147bc1"/>
    </linearGradient>
    <linearGradient id="linear-gradient1" x1="13047.27" y1="-2801.09" x2="13257.01" y2="-2437.8" gradientTransform="translate(13524.89 3744.9) rotate(-153.9)" gradientUnits="userSpaceOnUse">
      <stop offset="0" stop-color="#deeaa9"/>
      <stop offset="1" stop-color="#90c8e6"/>
    </linearGradient>
    <linearGradient id="linear-gradient2" x1="1326.85" y1="1655.1" x2="1448.25" y2="1655.1" gradientTransform="translate(-611.7 1935.57) rotate(-11.48) scale(1 -1)" xlink:href="#linear-gradient"/>
    <radialGradient id="radial-gradient" cx="1884.8" cy="39.84" fx="1884.8" fy="-139.53" r="179.44" gradientTransform="translate(2190.04 805.48) rotate(-169.7) scale(1 -1.05) skewX(-.54)" gradientUnits="userSpaceOnUse">
      <stop offset=".16" stop-color="#ebe1a3"/>
      <stop offset=".24" stop-color="#ebdf96"/>
      <stop offset=".4" stop-color="#ed7"/>
      <stop offset=".6" stop-color="#f1d741"/>
      <stop offset=".66" stop-color="#f4d633"/>
      <stop offset=".99" stop-color="#f4d633"/>
    </radialGradient>
    <linearGradient id="New_Gradient_Swatch_1" data-name="New Gradient Swatch 1" x1="866.27" y1="465.15" x2="4431.72" y2="465.15" gradientUnits="userSpaceOnUse">
      <stop offset="0" stop-color="#deeaa9"/>
      <stop offset="1" stop-color="#90c8e6"/>
    </linearGradient>
  </defs>
  <g>
    <path class="st3" d="M381.66,127.5c-45.44,149.95-201.68,280.69-360.03,262.79-23.12-4.4-24.44-25.1-18.89-44.66C38.4,196.26,183.56,85,333.81,89.7c26.37.07,54.22,3.31,47.85,37.8h0Z"/>
    <path class="st1" d="M421.45,135.16c-10.56,156.66,88.93,336.63,242.84,378.85,23.1,4.5,31.64-14.3,33.36-34.6,19.47-152.48-76.56-310.17-218.26-361.68-24.6-9.74-51.7-17.08-57.94,17.44Z"/>
    <path class="st0" d="M482.68,53.44c2.06-50.16-101.17-75.6-125.18-28.61-4.3,8.43-.09,18.72,8.34,20.95,31.16,8.27,67.69,13.49,99.16,22.04,8.59,2.33,17.28-4.73,17.68-14.39h0Z"/>
    <path class="st2" d="M456.64,425.73c-55.92,322.51-273.59,273.46-210.8-41.22,53.27-33.61,98.8-78.31,132.6-130.21,13.27,61.24,40.1,120.12,78.2,171.43h0Z"/>
  </g>
  <g>
    <g>
      <path class="st4" d="M874.45,116.94c0-2.98,2.38-5.65,5.65-5.65h121.07c3.27,0,5.65,2.68,5.65,5.65v24.39c0,2.98-2.38,5.65-5.65,5.65h-88.05v55.92h73.47c2.97,0,5.65,2.68,5.65,5.65v24.39c0,2.97-2.68,5.65-5.65,5.65h-73.47v75.26c0,2.98-2.68,5.65-5.65,5.65h-27.37c-3.27,0-5.65-2.68-5.65-5.65V116.94h0Z"/>
      <path class="st4" d="M1071.96,171.38l-26.18,5.65c-2.68.6-5.65-1.19-5.95-3.87l-1.78-14.58c-.3-2.38.3-4.16,1.49-5.35l42.83-35.99h20.82c2.97,0,5.35,2.68,5.35,5.65v190.97c0,2.98-2.38,5.65-5.35,5.65h-25.58c-3.27,0-5.65-2.68-5.65-5.65v-142.49h0Z"/>
      <path class="st4" d="M1178.14,116.94c0-2.98,2.38-5.65,5.65-5.65h85.07c35.7,0,64.85,28.56,64.85,63.95,0,27.37-18.15,49.68-44.02,60.09l40.75,75.55c2.08,3.87,0,8.63-5.06,8.63h-31.23c-2.68,0-4.16-1.49-4.76-2.68l-39.56-78.83h-33.02v75.85c0,2.98-2.68,5.65-5.65,5.65h-27.37c-3.27,0-5.65-2.68-5.65-5.65V116.94h0ZM1265.6,206.18c15.77,0,29.45-13.68,29.45-30.34,0-15.77-13.68-28.85-29.45-28.85h-48.49v59.19h48.49Z"/>
      <path class="st4" d="M1375.05,288.58l15.17-14.58c2.68-2.38,5.35-2.38,7.73,0,.89,1.19,18.44,16.06,36.59,16.06,16.06,0,31.53-11.6,31.53-27.96,0-15.47-14.28-29.45-41.05-29.45h-16.66c-3.27,0-5.65-2.38-5.65-5.95v-18.74c0-3.87,2.08-5.95,5.65-5.95h16.66c24.39,0,36.89-12.2,36.89-27.37,0-16.36-13.68-27.37-28.85-27.37s-24.99,8.33-30.04,14.28c-2.08,2.38-5.35,2.68-8.03.3l-14.57-13.68c-2.38-2.08-2.08-5.65,0-7.73,0,0,22.61-26.18,55.92-26.18s63.36,21.12,63.36,54.44c0,22.9-17.25,40.16-30.64,46.4v.89c13.98,5.95,35.99,22.01,35.99,48.49,0,33.61-27.37,58.01-68.42,58.01-37.18,0-55.33-18.74-61.87-26.47-1.79-2.08-1.49-5.36.3-7.44h0Z"/>
      <path class="st4" d="M1561.25,116.94c0-2.98,2.38-5.65,5.65-5.65h121.07c3.27,0,5.65,2.68,5.65,5.65v24.39c0,2.98-2.38,5.65-5.65,5.65h-88.05v55.92h73.47c2.97,0,5.65,2.68,5.65,5.65v24.39c0,2.97-2.68,5.65-5.65,5.65h-73.47v75.26c0,2.98-2.68,5.65-5.65,5.65h-27.37c-3.27,0-5.65-2.68-5.65-5.65V116.94h0Z"/>
      <path class="st4" d="M1743.88,116.94c0-2.98,2.38-5.65,5.65-5.65h27.37c2.97,0,5.65,2.68,5.65,5.65v166.88h75.85c3.27,0,5.65,2.68,5.65,5.65v24.39c0,2.98-2.38,5.65-5.65,5.65h-108.87c-3.27,0-5.65-2.68-5.65-5.65V116.94h0Z"/>
      <path class="st4" d="M1934.25,219.27l-67.82-99.35c-2.38-3.87,0-8.63,4.76-8.63h30.34c2.38,0,3.87,1.49,4.76,2.68l47.59,68.42,47.59-68.42c.89-1.19,2.38-2.68,4.76-2.68h30.64c4.76,0,7.14,4.76,4.76,8.63l-68.71,99.05v94.89c0,2.98-2.68,5.65-5.65,5.65h-27.37c-3.27,0-5.65-2.68-5.65-5.65v-94.59h0Z"/>
      <path class="st4" d="M2080.59,273.41c13.39,0,24.69,11.3,24.69,24.69s-11.3,24.39-24.69,24.39-24.39-11.01-24.39-24.39,11.01-24.69,24.39-24.69Z"/>
      <path class="st4" d="M2155.25,116.94c0-2.98,2.68-5.65,5.65-5.65h27.66c2.98,0,5.65,2.68,5.65,5.65v196.92c0,2.98-2.68,5.65-5.65,5.65h-27.66c-2.97,0-5.65-2.68-5.65-5.65V116.94Z"/>
      <path class="st4" d="M2355.14,108.32c59.49,0,107.09,47.89,107.09,107.38s-47.59,106.79-107.09,106.79-106.79-47.3-106.79-106.79,47.3-107.38,106.79-107.38ZM2355.14,283.82c37.48,0,68.42-30.64,68.42-68.12s-30.94-68.71-68.42-68.71-68.12,31.23-68.12,68.71,30.64,68.12,68.12,68.12h0Z"/>
    </g>
    <path class="st5" d="M866.67,529.77l61.23-134.23c.6-1.2,2.39-2.19,3.39-2.19h1.99c1,0,2.79,1,3.39,2.19l60.83,134.23c1.2,2.59-.4,5.19-3.39,5.19h-12.57c-2.39,0-3.79-1.2-4.59-2.99l-12.37-27.33h-65.22c-3.99,9.17-8.18,18.15-12.17,27.33-.6,1.39-2.19,2.99-4.59,2.99h-12.57c-2.99,0-4.59-2.59-3.39-5.19ZM957.02,487.49l-24.53-54.65h-1l-24.33,54.65h49.86ZM1052.36,514.81c1.8-2.59,3.39-5.58,5.19-8.18,1.8-2.59,4.59-3.39,6.78-1.59,1.2,1,16.55,13.76,31.91,13.76,13.76,0,22.54-8.38,22.54-18.55,0-11.97-10.37-19.55-30.12-27.72-20.34-8.58-36.3-19.15-36.3-42.28,0-15.56,11.97-36.9,43.68-36.9,19.94,0,34.9,10.37,36.9,11.77,1.6,1,3.19,3.79,1.2,6.78-1.6,2.39-3.39,5.19-4.99,7.58-1.6,2.59-4.19,3.79-6.98,1.99-1.4-.8-15.36-9.97-26.93-9.97-16.75,0-22.54,10.57-22.54,17.95,0,11.37,8.78,18.35,25.33,25.13,23.14,9.37,42.88,20.34,42.88,44.68,0,20.74-18.55,37.7-44.48,37.7-24.33,0-39.69-12.76-42.88-15.76-1.8-1.6-3.19-2.99-1.2-6.38ZM1166.65,399.13c0-1.99,1.8-3.79,3.79-3.79h13.36c2.19,0,3.79,1.8,3.79,3.79v82.37c0,19.95,12.76,35.5,33.11,35.5s33.51-15.36,33.51-35.1v-82.77c0-1.99,1.6-3.79,3.79-3.79h13.36c1.99,0,3.79,1.8,3.79,3.79v83.77c0,30.32-22.94,54.05-54.45,54.05s-54.05-23.73-54.05-54.05v-83.77ZM1312.05,399.13c0-1.99,1.6-3.79,3.79-3.79h44.68c24.13,0,41.49,15.96,41.49,36.9,0,15.36-11.37,26.33-20.74,31.71,10.57,4.39,24.93,14.16,24.93,32.51,0,22.34-18.35,38.49-43.48,38.49h-46.87c-2.19,0-3.79-1.79-3.79-3.79v-132.04ZM1362.51,516.61c12.17,0,21.54-9.37,21.54-21.74s-11.57-20.94-24.53-20.94h-27.33v42.68h30.32ZM1359.32,455.97c12.76,0,20.54-9.37,20.54-21.34s-7.78-20.54-20.54-20.54h-26.93v41.89h26.93ZM1427.13,514.81c1.8-2.59,3.39-5.58,5.19-8.18,1.8-2.59,4.59-3.39,6.78-1.59,1.2,1,16.55,13.76,31.91,13.76,13.76,0,22.54-8.38,22.54-18.55,0-11.97-10.37-19.55-30.12-27.72-20.34-8.58-36.3-19.15-36.3-42.28,0-15.56,11.97-36.9,43.68-36.9,19.94,0,34.9,10.37,36.9,11.77,1.6,1,3.19,3.79,1.2,6.78-1.6,2.39-3.39,5.19-4.99,7.58-1.6,2.59-4.19,3.79-6.98,1.99-1.4-.8-15.36-9.97-26.93-9.97-16.75,0-22.54,10.57-22.54,17.95,0,11.37,8.78,18.35,25.33,25.13,23.14,9.37,42.88,20.34,42.88,44.68,0,20.74-18.55,37.7-44.48,37.7-24.33,0-39.69-12.76-42.88-15.76-1.8-1.6-3.19-2.99-1.2-6.38ZM1543.22,399.13c0-1.99,1.8-3.79,3.79-3.79h13.16c1.99,0,3.79,1.8,3.79,3.79v132.04c0,2-1.8,3.79-3.79,3.79h-13.16c-1.99,0-3.79-1.79-3.79-3.79v-132.04ZM1602.65,399.13c0-1.99,1.6-3.79,3.59-3.79h45.87c38.49,0,70.01,31.31,70.01,69.61s-31.51,70.01-70.01,70.01h-45.87c-1.99,0-3.59-1.79-3.59-3.79v-132.04ZM1649.32,516.01c29.32,0,50.66-21.54,50.66-51.06s-21.34-50.66-50.66-50.66h-26.33v101.72h26.33ZM1750.85,399.13c0-1.99,1.8-3.79,3.79-3.79h13.16c1.99,0,3.79,1.8,3.79,3.79v132.04c0,2-1.8,3.79-3.79,3.79h-13.16c-1.99,0-3.79-1.79-3.79-3.79v-132.04ZM1791.54,529.77l61.23-134.23c.6-1.2,2.39-2.19,3.39-2.19h1.99c1,0,2.79,1,3.39,2.19l60.83,134.23c1.2,2.59-.4,5.19-3.39,5.19h-12.57c-2.39,0-3.79-1.2-4.59-2.99l-12.37-27.33h-65.22c-3.99,9.17-8.18,18.15-12.17,27.33-.6,1.39-2.19,2.99-4.59,2.99h-12.57c-2.99,0-4.59-2.59-3.39-5.19ZM1881.89,487.49l-24.53-54.65h-1l-24.33,54.65h49.86ZM1942.33,399.13c0-1.99,1.6-3.79,3.79-3.79h54.25c23.93,0,43.48,18.95,43.48,42.68,0,18.35-12.17,33.51-29.52,40.49l27.32,50.66c1.4,2.59,0,5.78-3.39,5.78h-15.56c-1.6,0-2.79-1-3.19-1.79l-26.53-52.86h-30.12v50.86c0,2-1.8,3.79-3.79,3.79h-12.96c-2.19,0-3.79-1.79-3.79-3.79v-132.04ZM1998.77,463.15c12.96,0,24.33-10.97,24.33-24.73,0-12.96-11.37-23.73-24.33-23.73h-35.5v48.47h35.5ZM2102.29,467.74l-46.67-66.62c-1.6-2.59,0-5.78,3.19-5.78h14.76c1.6,0,2.59,1,3.19,1.8l36.1,50.86,36.1-50.86c.6-.8,1.8-1.8,3.19-1.8h14.96c3.19,0,4.79,3.19,3.19,5.78l-47.27,66.42v63.62c0,2-1.8,3.79-3.79,3.79h-13.16c-2.19,0-3.79-1.79-3.79-3.79v-63.43ZM2294.76,393.35c39.89,0,71.8,32.11,71.8,72s-31.91,71.6-71.8,71.6-71.6-31.71-71.6-71.6,31.71-72,71.6-72ZM2294.76,517.01c28.52,0,51.86-23.14,51.86-51.66s-23.34-52.06-51.86-52.06-51.66,23.73-51.66,52.06,23.34,51.66,51.66,51.66ZM2395.09,399.13c0-1.99,1.6-3.79,3.79-3.79h79.78c2.19,0,3.79,1.8,3.79,3.79v11.17c0,2-1.6,3.79-3.79,3.79h-63.03v46.07h53.25c1.99,0,3.79,1.8,3.79,3.79v10.97c0,1.99-1.8,3.79-3.79,3.79h-53.25v52.46c0,2-1.8,3.79-3.79,3.79h-12.96c-2.19,0-3.79-1.79-3.79-3.79v-132.04ZM2551.86,399.13c0-1.99,1.6-3.79,3.79-3.79h79.78c2.19,0,3.79,1.8,3.79,3.79v11.17c0,2-1.6,3.79-3.79,3.79h-63.03v46.07h53.25c1.99,0,3.79,1.8,3.79,3.79v10.97c0,1.99-1.8,3.79-3.79,3.79h-53.25v52.46c0,2-1.8,3.79-3.79,3.79h-12.96c-2.19,0-3.79-1.79-3.79-3.79v-132.04ZM2674.52,429.85l-15.96,7.58c-1.8.8-3.79.4-4.39-1.4l-2.39-6.98c-.6-1.59-.2-3.19.6-3.99l28.32-25.73h9.77c1.99,0,3.59,1.79,3.59,3.79v128.05c0,2-1.6,3.79-3.59,3.79h-12.17c-2.19,0-3.79-1.79-3.79-3.79v-101.32ZM2733.16,399.13c0-1.99,1.6-3.79,3.79-3.79h54.25c23.93,0,43.48,18.95,43.48,42.68,0,18.35-12.17,33.51-29.52,40.49l27.32,50.66c1.4,2.59,0,5.78-3.39,5.78h-15.56c-1.6,0-2.79-1-3.19-1.79l-26.53-52.86h-30.12v50.86c0,2-1.8,3.79-3.79,3.79h-12.96c-2.19,0-3.79-1.79-3.79-3.79v-132.04ZM2789.61,463.15c12.96,0,24.33-10.97,24.33-24.73,0-12.96-11.37-23.73-24.33-23.73h-35.5v48.47h35.5ZM2855.03,514.41l7.78-7.18c1.99-1.6,3.79-1.4,5.39.4,1.2,1.59,12.37,12.37,27.13,12.37,12.96,0,24.93-8.18,24.93-21.54,0-11.97-10.17-23.33-31.51-23.33h-11.17c-2.19,0-3.79-1.4-3.79-4.19v-8.58c0-2.99,1.2-4.19,3.99-4.19h11.17c18.75,0,28.12-9.57,28.12-21.34,0-13.36-10.97-21.74-22.74-21.74s-19.15,6.78-23.14,11.17c-1.2,1.59-3.39,1.99-5.19.4l-7.38-6.58c-1.6-1.4-1.4-3.79,0-5.19,0,0,15.16-17.55,36.9-17.55,23.14,0,41.69,14.16,41.69,36.5,0,15.36-11.57,27.13-20.54,31.31v.6c9.37,3.99,24.13,15.96,24.13,33.11,0,21.74-17.55,38.1-45.08,38.1-24.73,0-36.5-12.57-40.89-17.75-1.2-1.4-1.2-3.59.2-4.79ZM2971.31,399.13c0-1.99,1.6-3.79,3.79-3.79h79.78c2.19,0,3.79,1.8,3.79,3.79v11.17c0,2-1.6,3.79-3.79,3.79h-63.03v46.07h53.25c1.99,0,3.79,1.8,3.79,3.79v10.97c0,1.99-1.8,3.79-3.79,3.79h-53.25v52.46c0,2-1.8,3.79-3.79,3.79h-12.96c-2.19,0-3.79-1.79-3.79-3.79v-132.04ZM3084.21,399.13c0-1.99,1.6-3.79,3.79-3.79h13.16c1.99,0,3.79,1.8,3.79,3.79v117.28h54.05c2.19,0,3.79,1.79,3.79,3.79v10.97c0,2-1.6,3.79-3.79,3.79h-71.01c-2.19,0-3.79-1.79-3.79-3.79v-132.04ZM3200.89,467.74l-46.67-66.62c-1.6-2.59,0-5.78,3.19-5.78h14.76c1.6,0,2.59,1,3.19,1.8l36.1,50.86,36.1-50.86c.6-.8,1.8-1.8,3.19-1.8h14.96c3.19,0,4.79,3.19,3.19,5.78l-47.27,66.42v63.62c0,2-1.8,3.79-3.79,3.79h-13.16c-2.19,0-3.79-1.79-3.79-3.79v-63.43ZM3331.93,399.13c0-1.99,1.8-3.79,3.79-3.79h13.16c1.99,0,3.79,1.8,3.79,3.79v132.04c0,2-1.8,3.79-3.79,3.79h-13.16c-1.99,0-3.79-1.79-3.79-3.79v-132.04ZM3391.36,396.94c0-1.99,1.8-3.59,3.79-3.59h4.99l86.56,100.13h.2v-94.34c0-1.99,1.6-3.79,3.79-3.79h12.76c1.99,0,3.79,1.8,3.79,3.79v134.23c0,2-1.8,3.59-3.79,3.59h-5.19l-86.56-102.92h-.2v97.13c0,2-1.6,3.79-3.79,3.79h-12.57c-1.99,0-3.79-1.79-3.79-3.79v-134.23ZM3545.94,399.13c0-1.99,1.6-3.79,3.59-3.79h45.87c38.49,0,70.01,31.31,70.01,69.61s-31.51,70.01-70.01,70.01h-45.87c-1.99,0-3.59-1.79-3.59-3.79v-132.04ZM3592.61,516.01c29.32,0,50.66-21.54,50.66-51.06s-21.34-50.66-50.66-50.66h-26.33v101.72h26.33ZM3692.35,399.13c0-1.99,1.79-3.79,3.79-3.79h13.36c2.19,0,3.79,1.8,3.79,3.79v82.37c0,19.95,12.76,35.5,33.11,35.5s33.51-15.36,33.51-35.1v-82.77c0-1.99,1.6-3.79,3.79-3.79h13.36c1.99,0,3.79,1.8,3.79,3.79v83.77c0,30.32-22.94,54.05-54.45,54.05s-54.05-23.73-54.05-54.05v-83.77ZM3828.77,514.81c1.8-2.59,3.39-5.58,5.19-8.18,1.79-2.59,4.59-3.39,6.78-1.59,1.2,1,16.55,13.76,31.91,13.76,13.76,0,22.54-8.38,22.54-18.55,0-11.97-10.37-19.55-30.12-27.72-20.34-8.58-36.3-19.15-36.3-42.28,0-15.56,11.97-36.9,43.68-36.9,19.95,0,34.9,10.37,36.9,11.77,1.59,1,3.19,3.79,1.2,6.78-1.6,2.39-3.39,5.19-4.99,7.58-1.6,2.59-4.19,3.79-6.98,1.99-1.4-.8-15.36-9.97-26.93-9.97-16.75,0-22.54,10.57-22.54,17.95,0,11.37,8.78,18.35,25.33,25.13,23.14,9.37,42.88,20.34,42.88,44.68,0,20.74-18.55,37.7-44.48,37.7-24.33,0-39.69-12.76-42.88-15.76-1.79-1.6-3.19-2.99-1.2-6.38ZM3964,414.09h-32.51c-2.19,0-3.79-1.79-3.79-3.79v-11.17c0-1.99,1.6-3.79,3.79-3.79h85.76c2.19,0,3.79,1.8,3.79,3.79v11.17c0,2-1.6,3.79-3.79,3.79h-32.51v117.08c0,2-1.8,3.79-3.79,3.79h-13.16c-2,0-3.79-1.79-3.79-3.79v-117.08ZM4042.59,399.13c0-1.99,1.6-3.79,3.79-3.79h54.25c23.94,0,43.48,18.95,43.48,42.68,0,18.35-12.17,33.51-29.52,40.49l27.33,50.66c1.4,2.59,0,5.78-3.39,5.78h-15.56c-1.6,0-2.79-1-3.19-1.79l-26.53-52.86h-30.12v50.86c0,2-1.8,3.79-3.79,3.79h-12.96c-2.19,0-3.79-1.79-3.79-3.79v-132.04ZM4099.03,463.15c12.96,0,24.33-10.97,24.33-24.73,0-12.96-11.37-23.73-24.33-23.73h-35.5v48.47h35.5ZM4175.22,399.13c0-1.99,1.8-3.79,3.79-3.79h13.16c1.99,0,3.79,1.8,3.79,3.79v132.04c0,2-1.79,3.79-3.79,3.79h-13.16c-1.99,0-3.79-1.79-3.79-3.79v-132.04ZM4234.66,399.13c0-1.99,1.6-3.79,3.79-3.79h79.78c2.19,0,3.79,1.8,3.79,3.79v11.17c0,2-1.6,3.79-3.79,3.79h-63.03v40.69h53.25c1.99,0,3.79,1.8,3.79,3.79v11.17c0,2.19-1.79,3.79-3.79,3.79h-53.25v42.88h63.03c2.19,0,3.79,1.79,3.79,3.79v10.97c0,2-1.6,3.79-3.79,3.79h-79.78c-2.19,0-3.79-1.79-3.79-3.79v-132.04ZM4343.17,514.81c1.8-2.59,3.39-5.58,5.19-8.18,1.79-2.59,4.59-3.39,6.78-1.59,1.2,1,16.55,13.76,31.91,13.76,13.76,0,22.54-8.38,22.54-18.55,0-11.97-10.37-19.55-30.12-27.72-20.34-8.58-36.3-19.15-36.3-42.28,0-15.56,11.97-36.9,43.68-36.9,19.95,0,34.9,10.37,36.9,11.77,1.59,1,3.19,3.79,1.2,6.78-1.6,2.39-3.39,5.19-4.99,7.58-1.6,2.59-4.19,3.79-6.98,1.99-1.4-.8-15.36-9.97-26.93-9.97-16.75,0-22.54,10.57-22.54,17.95,0,11.37,8.78,18.35,25.33,25.13,23.14,9.37,42.88,20.34,42.88,44.68,0,20.74-18.55,37.7-44.48,37.7-24.33,0-39.69-12.76-42.88-15.76-1.79-1.6-3.19-2.99-1.2-6.38Z"/>
  </g>
</svg>