<svg width="364" height="75" viewBox="0 0 364 75" fill="none" xmlns="http://www.w3.org/2000/svg">
<path d="M55.2238 27.6747C55.2314 27.8964 55.1916 28.1181 55.1058 28.3184C54.8179 29.002 54.0844 29.3735 53.36 29.2023C51.3569 28.7206 49.219 28.4178 46.8238 28.2787C45.2311 28.1915 43.5419 28.1655 41.8083 28.2022C36.6826 28.2512 30.3087 29.5035 23.8568 31.7269C20.5734 32.8737 17.659 34.3126 15.1995 36.0008C10.8778 38.9994 5.39067 44.021 3.8041 50.8945C3.80257 50.9021 3.80104 50.9098 3.79797 50.9174C3.4289 52.4893 3.43349 54.1316 3.80716 55.7036C4.2865 57.7098 5.24212 59.5417 6.60051 61.0112C11.8059 66.5389 15.4048 67.5405 18.5182 67.7989L18.7601 67.8158C24.2963 68.1904 31.1725 67.0588 33.0699 66.3188C33.4467 66.172 33.8586 66.1811 34.2277 66.3417C34.6014 66.5099 34.8862 66.805 35.0317 67.1796C35.2767 67.8112 35.07 68.5299 34.5294 68.9351C32.9061 70.2348 30.3669 71.0361 28.5185 71.4796C26.2428 72.0285 23.6531 72.3619 21.4157 72.3955C21.2702 72.3986 21.1216 72.3986 20.9761 72.3986C20.8873 72.3986 20.797 72.3986 20.7066 72.3955C15.3175 72.3481 10.3219 70.7165 6.63879 67.8051C2.38139 64.4379 0.0857607 59.6487 0 53.9542V53.9405C0 53.8166 0.00153144 53.6989 0.00459432 53.5873C0.00918864 53.4007 0.0107201 53.2126 0.00459432 53.0261C0.00153144 52.942 0 52.8609 0 52.7814V52.7676C0.0275659 48.0916 1.63864 43.2641 4.65864 38.8067C8.26212 33.5144 13.7217 29.2375 20.4524 26.4407C24.3377 24.8259 28.8554 23.884 33.8816 23.6378C35.8372 23.5415 37.9445 23.5506 40.1467 23.6623C42.2325 23.7494 44.715 23.8947 47.248 24.306C49.902 24.7265 52.2068 25.3535 54.2942 26.2205C54.8822 26.4636 55.2498 27.0447 55.2238 27.6762V27.6747Z" fill="url(#paint0_linear_771_323)"/>
<path d="M60.4805 45.0706C59.618 46.8624 58.6511 48.6003 57.606 50.2368C57.1609 50.935 56.1434 51.1842 55.3393 51.1842C54.8635 51.1842 54.4062 51.1011 54.0133 50.9458C53.3288 50.6751 52.8868 49.9876 52.8868 49.1956C52.8868 48.8756 52.9697 48.5557 53.1232 48.2728C54.2159 46.2795 55.2334 44.114 56.1511 41.8285C58.1646 36.6455 59.1023 31.2763 58.8614 26.3086C58.7309 23.9324 58.3672 21.5469 57.784 19.223C56.0514 12.1098 52.0734 6.48223 47.1425 4.166L47.1164 4.1537C47.0888 4.1414 45.2686 3.20629 43.1707 2.77565C42.6428 2.66645 40.7121 2.36501 38.0157 3.04019C37.9558 3.05557 37.7793 3.1217 37.6627 3.1663L37.5936 3.19245C36.9475 3.44007 36.4795 3.62001 35.9715 3.34625C35.6922 3.19706 35.4911 2.93253 35.4221 2.62493L35.3591 2.34347L35.4451 2.06817C35.6354 1.47604 36.0866 1.29456 36.2554 1.22535C36.2677 1.22073 36.2753 1.21766 36.283 1.21458L36.2938 1.20997C36.9629 0.890065 37.7333 0.537863 38.407 0.420975C41.8309 -0.389551 45.4221 -0.0250449 48.7969 1.4745C56.8479 4.92731 61.498 13.254 63.1631 19.8936C63.7095 22.0529 64.0808 24.4107 64.2635 26.8976C64.6119 33.1081 63.3043 39.3893 60.482 45.0706H60.4805Z" fill="url(#paint1_linear_771_323)"/>
<path d="M47.285 59.4307C47.2313 59.489 47.1791 59.5489 47.1301 59.6087C47.0718 59.6793 47.0825 59.7836 47.1546 59.8404C47.4645 60.0812 47.8051 60.2745 48.1641 60.4157C48.2469 60.4479 48.3329 60.4786 48.4188 60.5062C48.8714 60.6489 49.35 60.7133 49.8364 60.6903C50.9164 60.6412 51.9136 60.1748 52.6455 59.3801C52.6992 59.3218 52.7513 59.262 52.8004 59.2022C52.8587 59.1316 52.848 59.0257 52.7759 58.9705C52.3064 58.6054 51.771 58.3522 51.2018 58.2203C51.0683 58.1896 50.9348 58.165 50.7983 58.1482C50.5682 58.119 50.3319 58.1098 50.0956 58.1205C49.5188 58.1466 48.9649 58.2924 48.4617 58.544C48.385 58.5823 48.3098 58.6222 48.2362 58.6667C48.069 58.7634 47.9094 58.8723 47.7575 58.9935C47.6716 59.061 47.5872 59.1331 47.5075 59.2083C47.4308 59.2789 47.3586 59.3525 47.2865 59.4307H47.285Z" fill="white"/>
<path d="M47.2894 59.0079C47.3584 58.9205 47.4228 58.8315 47.4827 58.7394C47.5916 58.5783 47.6867 58.4096 47.7696 58.2347C47.8064 58.158 47.8417 58.0797 47.8724 57.9999C48.081 57.4783 48.1792 56.9153 48.1577 56.3369C48.1485 56.0991 48.1194 55.8659 48.0718 55.6388C48.0442 55.5038 48.0089 55.3719 47.9659 55.2415C47.788 54.6846 47.4903 54.1722 47.0869 53.7349C47.0255 53.6674 46.9196 53.6659 46.8537 53.7303C46.7969 53.7855 46.7417 53.8423 46.6895 53.8991C45.9577 54.6953 45.5772 55.7278 45.6171 56.8079C45.6355 57.2958 45.7383 57.7668 45.9193 58.2055C45.9531 58.2884 45.9899 58.3712 46.0298 58.451C46.2001 58.7977 46.421 59.1199 46.688 59.4099C46.7493 59.4774 46.8552 59.4789 46.9212 59.4145C46.9779 59.3592 47.0332 59.3025 47.0869 59.2442C47.1574 59.1675 47.2265 59.0877 47.2894 59.0064V59.0079Z" fill="white"/>
<path d="M45.7932 59.058C45.741 58.9752 45.6183 58.9875 45.5815 59.078C45.3621 59.6226 45.4863 60.27 45.9435 60.6904C46.4007 61.1108 47.0712 61.1829 47.5974 60.9083C47.6848 60.8638 47.6848 60.7395 47.5974 60.6966C47.2353 60.5186 46.8947 60.2885 46.5879 60.0108C46.5787 60.0016 46.5419 59.9678 46.5327 59.9586C46.2442 59.6871 45.9972 59.3848 45.7947 59.058H45.7932Z" fill="white"/>
<path d="M49.2225 55.1078C49.132 54.8731 49.1995 54.577 49.3943 54.3607C50.634 52.986 52.0899 52.3263 52.788 52.8771C53.4814 53.4233 53.1899 54.9759 52.162 56.4932C52.004 56.7264 51.7432 56.8675 51.4977 56.843C50.9807 56.7893 50.4928 56.6036 50.0755 56.2769C49.6828 55.967 49.3974 55.565 49.221 55.1093L49.2225 55.1078Z" fill="#F4D731"/>
<path d="M82.3136 62.1398C80.0264 67.45 74.9798 71.5502 68.4662 73.3907C66.0088 74.0735 63.4135 74.4188 60.7477 74.4188C58.0818 74.4188 55.3838 74.0751 52.7087 73.3969C47.7036 72.1267 42.8333 69.7205 38.6253 66.4342L38.5885 66.4034C38.5425 66.3648 38.495 66.3248 38.4398 66.2801C38.3846 66.2338 38.3217 66.1814 38.2574 66.1259L38.1439 66.0319C37.8205 65.7637 37.6104 65.588 37.5031 65.4939C37.3682 65.3783 37.1812 65.2072 36.9865 65.0269L36.893 64.9421C36.7275 64.788 36.5726 64.6461 36.4684 64.5537L36.4255 64.5151C35.0718 63.2203 33.7841 61.7852 32.5991 60.2546C30.5726 57.6203 28.7851 54.6361 27.2858 51.3837C26.3446 49.3212 25.2899 46.8796 24.6139 44.3917C23.9194 41.9717 23.458 39.4961 23.2434 37.0422C23.2357 36.9343 23.2357 36.7971 23.2403 36.5273V36.4996C23.2449 36.31 23.2511 35.9616 23.2434 35.863C23.2051 35.3975 23.3476 34.952 23.6435 34.6067C23.9332 34.2645 24.3441 34.0533 24.7948 34.0179C25.6118 33.9393 26.3599 34.4757 26.5653 35.2942C27.1387 37.6187 27.8331 39.826 28.6333 41.8561C28.8464 42.4249 29.1116 43.0245 29.409 43.6919L29.4703 43.8306C29.5271 43.9555 29.5822 44.0803 29.6359 44.2037C33.1342 51.5995 37.1781 57.0885 41.9948 60.9806C46.8528 64.882 52.5156 67.4331 58.3685 68.3595C61.4467 68.8758 64.1034 68.9236 66.4948 68.509C69.8459 67.9417 72.7969 66.5544 75.0335 64.4966C77.4265 62.2739 78.8751 58.9444 79.01 55.3636C79.0269 54.9413 79.0253 54.5158 79.0039 54.0935C78.9104 52.1729 78.6896 50.4634 78.3278 48.868C78.3125 48.7987 78.3003 48.7386 78.2849 48.6784L78.2819 48.6661C78.1117 47.937 78.2435 47.1632 78.6452 46.5405C79.0438 45.9162 79.6631 45.4923 80.3866 45.3459L80.4035 45.3428C81.8476 45.0499 83.2487 45.9424 83.5982 47.3759C84.0367 49.1609 84.2313 50.9968 84.1777 52.8341C84.2712 55.9972 83.6427 59.1294 82.309 62.1413L82.3136 62.1398Z" fill="#F4D833"/>
<path d="M31.117 16.4896C31.398 16.922 31.383 17.5243 31.0779 18.0118C29.1451 21.1038 26.4819 22.8644 24.8451 22.0087C23.2189 21.1589 23.1633 18.0222 24.6107 14.714C24.8331 14.2042 25.302 13.8449 25.8055 13.8165C26.8696 13.7554 27.9337 13.9626 28.9091 14.4725C29.8305 14.9541 30.5714 15.6518 31.117 16.4881V16.4896Z" fill="#F4D731"/>
<path d="M32.1013 8.06613C31.9798 8.24911 31.852 8.4276 31.7163 8.59859C31.4781 8.90306 31.2178 9.19104 30.937 9.45652C30.814 9.57501 30.6846 9.6905 30.5521 9.8C29.686 10.5259 28.6638 11.0779 27.5296 11.4169C27.0642 11.5564 26.5925 11.6554 26.1192 11.7153C25.84 11.7513 25.5576 11.7738 25.2784 11.7813C24.0763 11.8188 22.879 11.6074 21.7558 11.1529C21.5822 11.0824 21.5065 10.8904 21.5854 10.7269C21.6517 10.5874 21.7242 10.4479 21.7999 10.313C22.8348 8.4441 24.5717 7.0642 26.6903 6.43125C27.6463 6.14477 28.6307 6.02628 29.604 6.06978C29.7886 6.07728 29.9732 6.09228 30.1561 6.11178C30.9449 6.19727 31.7226 6.39226 32.4657 6.69223C32.6392 6.76273 32.7133 6.95471 32.636 7.1182C32.5682 7.25769 32.4972 7.39718 32.4215 7.53367C32.3205 7.71515 32.2133 7.89214 32.0997 8.06463L32.1013 8.06613Z" fill="white"/>
<path d="M32.8725 7.6537C32.9416 7.51185 33.0136 7.37156 33.0899 7.23439C33.1777 7.0754 33.3706 7.0224 33.5146 7.12216C34.1364 7.55082 34.6921 8.06989 35.1671 8.66222C35.2779 8.7994 35.3845 8.94124 35.4852 9.08621C36.0222 9.85312 36.4367 10.726 36.7045 11.6722C37.2976 13.7703 37.1032 15.9978 36.1589 17.94C36.0898 18.0819 36.0179 18.2206 35.9416 18.3578C35.8537 18.5168 35.6609 18.5698 35.5169 18.47C34.5769 17.8216 33.7909 16.9705 33.2007 15.9697C33.0626 15.7375 32.9344 15.4959 32.8193 15.2465C32.6221 14.8256 32.458 14.3829 32.327 13.9215C32.0103 12.7992 31.9182 11.641 32.0463 10.5094C32.065 10.3363 32.0895 10.1649 32.1197 9.99341C32.1859 9.6084 32.278 9.22806 32.3961 8.85395C32.4623 8.64196 32.5357 8.43464 32.6192 8.22733C32.6969 8.03404 32.7804 7.84231 32.8725 7.6537Z" fill="white"/>
<path d="M33.4457 6.10461C33.4301 6.09527 33.3706 6.06415 33.3549 6.05637H33.3533C32.8507 5.79809 32.323 5.6145 31.7828 5.50714C31.6529 5.48069 31.6106 5.31888 31.7092 5.22864C32.3074 4.68563 33.2093 4.54405 33.9656 4.9408C34.7156 5.33288 35.107 6.13883 35.0068 6.92767C34.9896 7.05837 34.8315 7.11905 34.7359 7.02725C34.3539 6.66784 33.9233 6.35822 33.4488 6.10461H33.4457Z" fill="white"/>
<path d="M73.0433 34.7703C73.1453 34.4088 72.9885 33.9819 72.6482 33.6948C70.4874 31.8667 68.1118 31.1275 67.1192 32.0512C66.1329 32.9689 66.8495 35.212 68.7061 37.287C68.9915 37.6069 69.4211 37.772 69.7975 37.6961C70.5909 37.534 71.3216 37.1814 71.9128 36.6311C72.471 36.1119 72.8473 35.4723 73.0433 34.7717V34.7703Z" fill="#F4D731"/>
<path d="M76.1349 41.3237C76.2186 41.4122 76.3009 41.5039 76.3786 41.5972C76.4699 41.7062 76.4593 41.8722 76.3527 41.9638C75.8927 42.3605 75.3855 42.6813 74.8463 42.9216C74.7214 42.9769 74.5935 43.029 74.4656 43.0765C73.7863 43.3246 73.0613 43.4494 72.3211 43.4384C70.6792 43.4147 69.1409 42.7303 67.9909 41.5134C67.9072 41.4249 67.8249 41.3332 67.7472 41.24C67.6559 41.1309 67.6665 40.965 67.7731 40.8733C68.4677 40.2743 69.2688 39.8476 70.1278 39.6121C70.3273 39.5568 70.5314 39.5125 70.7386 39.4778C71.0874 39.4193 71.4438 39.394 71.8047 39.3988C72.6836 39.4114 73.5304 39.6121 74.3056 39.9835C74.4244 40.0404 74.5402 40.1005 74.6544 40.1653C74.9118 40.3091 75.1616 40.4735 75.3977 40.6568C75.5317 40.7595 75.6627 40.8686 75.7891 40.9839C75.9079 41.0914 76.0237 41.2052 76.1349 41.3237Z" fill="white"/>
<path d="M76.139 40.7507C76.0359 40.6215 75.9371 40.4907 75.8455 40.3538C75.6813 40.1136 75.5346 39.8627 75.4067 39.6026C75.35 39.4871 75.2963 39.37 75.2468 39.2514C74.9199 38.4713 74.7513 37.6198 74.7557 36.7439C74.7572 36.3835 74.7891 36.0277 74.8487 35.681C74.8836 35.4757 74.9286 35.2735 74.9838 35.0743C75.2163 34.2212 75.6247 33.4289 76.187 32.7477C76.2742 32.6428 76.4268 32.6352 76.5241 32.7295C76.6084 32.8101 76.6912 32.8922 76.7711 32.9788C77.8682 34.1497 78.4684 35.6992 78.4596 37.3384C78.4553 38.079 78.3274 38.7982 78.0862 39.4719C78.0411 39.5996 77.9903 39.7258 77.9365 39.849C77.7055 40.3827 77.4003 40.883 77.0283 41.3346C76.9412 41.4395 76.7886 41.4472 76.6912 41.3529C76.6069 41.2723 76.5241 41.1886 76.4442 41.1035C76.3381 40.9894 76.2349 40.8724 76.139 40.7522V40.7507Z" fill="white"/>
<path d="M78.0921 41.1476C78.1458 41.0531 78.2808 41.0631 78.3248 41.1625C78.5851 41.7627 78.4696 42.4905 77.9831 42.9763C77.4917 43.4671 76.7643 43.5666 76.1786 43.2797C76.0826 43.2316 76.0761 43.094 76.1705 43.0426C76.561 42.8304 76.9254 42.5618 77.2525 42.2402C77.2622 42.2286 77.3013 42.1905 77.3111 42.1805C77.617 41.8672 77.8773 41.5206 78.0888 41.1476H78.0921Z" fill="white"/>
<path d="M107.184 51.5438V35.6558C107.184 35.4158 107.376 35.1998 107.64 35.1998H117.24C117.504 35.1998 117.696 35.4158 117.696 35.6558V36.9998C117.696 37.2398 117.504 37.4558 117.24 37.4558H109.656V42.9998H116.064C116.304 42.9998 116.52 43.2158 116.52 43.4558V44.7758C116.52 45.0158 116.304 45.2318 116.064 45.2318H109.656V51.5438C109.656 51.7838 109.44 51.9998 109.2 51.9998H107.64C107.376 51.9998 107.184 51.7838 107.184 51.5438ZM123.711 51.5198V38.9678L121.743 39.9038C121.527 39.9998 121.263 39.9518 121.191 39.7358L120.903 38.8718C120.831 38.6798 120.879 38.4878 120.975 38.3678L124.119 35.5118C124.383 35.2958 124.623 35.1998 124.959 35.1998H125.703C125.943 35.1998 126.135 35.4158 126.135 35.6558V51.5198C126.135 51.7838 125.943 51.9998 125.703 51.9998H124.191C123.927 51.9998 123.711 51.7838 123.711 51.5198ZM132.435 51.5438V35.6558C132.435 35.4158 132.627 35.1998 132.891 35.1998H139.419C142.299 35.1998 144.651 37.4798 144.651 40.3358C144.651 42.5438 143.187 44.3678 141.099 45.2078L144.387 51.3038C144.555 51.6158 144.387 51.9998 143.979 51.9998H142.179C141.915 51.9998 141.771 51.8798 141.675 51.6878L138.531 45.4238H134.907V51.5438C134.907 51.7838 134.691 51.9998 134.451 51.9998H132.891C132.627 51.9998 132.435 51.7838 132.435 51.5438ZM134.955 43.3598H139.227C140.787 43.3598 142.155 42.0398 142.155 40.3838C142.155 38.8238 140.787 37.5278 139.227 37.5278H134.955V43.3598ZM148.905 50.0558C148.761 49.8638 148.761 49.5998 148.929 49.4558L149.889 48.5678C150.129 48.3518 150.369 48.3998 150.561 48.6158C151.329 49.4078 152.265 50.1518 153.921 50.1518C155.529 50.1518 157.017 49.2878 157.017 47.3678C157.017 45.7598 155.769 44.5838 153.105 44.5838H151.737C151.449 44.5838 151.257 44.4158 151.257 44.0558V42.9998C151.257 42.6398 151.401 42.4718 151.761 42.4718H153.129C155.457 42.4718 156.633 41.3198 156.633 39.8558C156.633 38.1998 155.265 37.1678 153.801 37.1678C152.313 37.1678 151.425 38.0078 150.945 38.5598C150.801 38.7518 150.513 38.7998 150.297 38.6078L149.385 37.7918C149.193 37.6238 149.217 37.3118 149.385 37.1438C149.385 37.1438 151.257 34.9598 153.945 34.9598C156.825 34.9598 159.129 36.7118 159.129 39.4958C159.129 41.3918 157.689 42.8318 156.585 43.3598V43.4318C157.737 43.9118 159.561 45.1118 159.561 47.4158C159.561 50.1038 157.401 52.2398 153.897 52.2398C150.921 52.2398 149.457 50.6798 148.905 50.0558ZM164.951 51.5438V35.6558C164.951 35.4158 165.143 35.1998 165.407 35.1998H175.007C175.271 35.1998 175.463 35.4158 175.463 35.6558V36.9998C175.463 37.2398 175.271 37.4558 175.007 37.4558H167.423V42.9998H173.831C174.071 42.9998 174.287 43.2158 174.287 43.4558V44.7758C174.287 45.0158 174.071 45.2318 173.831 45.2318H167.423V51.5438C167.423 51.7838 167.207 51.9998 166.967 51.9998H165.407C165.143 51.9998 164.951 51.7838 164.951 51.5438ZM179.99 51.5438V35.6558C179.99 35.4158 180.182 35.1998 180.446 35.1998H182.03C182.27 35.1998 182.486 35.4158 182.486 35.6558V49.7678H188.99C189.254 49.7678 189.446 49.9838 189.446 50.2238V51.5438C189.446 51.7838 189.254 51.9998 188.99 51.9998H180.446C180.182 51.9998 179.99 51.7838 179.99 51.5438ZM196.83 41.4878H196.878L201.198 35.4158C201.27 35.3198 201.414 35.1998 201.582 35.1998H203.382C203.766 35.1998 203.958 35.5838 203.766 35.8958L198.078 43.8878V51.5438C198.078 51.7838 197.862 51.9998 197.622 51.9998H196.038C195.774 51.9998 195.582 51.7838 195.582 51.5438V43.9118L189.966 35.8958C189.774 35.5838 189.966 35.1998 190.35 35.1998H192.126C192.318 35.1998 192.438 35.3198 192.51 35.4158L196.83 41.4878ZM214.21 51.5438V35.6558C214.21 35.4158 214.426 35.1998 214.666 35.1998H216.25C216.49 35.1998 216.706 35.4158 216.706 35.6558V51.5438C216.706 51.7838 216.49 51.9998 216.25 51.9998H214.666C214.426 51.9998 214.21 51.7838 214.21 51.5438ZM222.757 51.5438V35.3918C222.757 35.1518 222.973 34.9598 223.213 34.9598H223.405C223.645 34.9598 223.813 34.9598 224.125 35.3198L234.205 47.0078H234.253V35.6558C234.253 35.4158 234.445 35.1998 234.709 35.1998H236.245C236.485 35.1998 236.701 35.4158 236.701 35.6558V51.8078C236.701 52.0478 236.485 52.2398 236.245 52.2398H236.029C235.789 52.2398 235.621 52.2398 235.333 51.9038L225.229 39.8558H225.181V51.5438C225.181 51.7838 224.989 51.9998 224.725 51.9998H223.213C222.973 51.9998 222.757 51.7838 222.757 51.5438ZM242.742 51.5438V35.6558C242.742 35.4158 242.934 35.1998 243.174 35.1998H248.694C253.326 35.1998 257.118 38.9678 257.118 43.5758C257.118 48.2318 253.326 51.9998 248.694 51.9998H243.174C242.934 51.9998 242.742 51.7838 242.742 51.5438ZM245.19 49.7198H248.43C251.958 49.7198 254.454 47.1278 254.454 43.5758C254.454 40.0478 251.958 37.4798 248.43 37.4798H245.19V49.7198ZM261.996 45.9278V35.6558C261.996 35.4158 262.212 35.1998 262.452 35.1998H264.06C264.324 35.1998 264.516 35.4158 264.516 35.6558V45.7598C264.516 48.1598 266.052 49.8398 268.5 49.8398C270.972 49.8398 272.532 48.1838 272.532 45.8078V35.6558C272.532 35.4158 272.724 35.1998 272.988 35.1998H274.596C274.836 35.1998 275.052 35.4158 275.052 35.6558V45.9278C275.052 49.5758 272.292 52.2398 268.5 52.2398C264.732 52.2398 261.996 49.5758 261.996 45.9278ZM280.162 50.3438C279.946 50.1518 279.754 49.9838 280.018 49.5758L280.642 48.5918C280.834 48.2798 281.194 48.1838 281.458 48.3998C282.586 49.3358 283.45 50.0558 285.298 50.0558C286.954 50.0558 288.01 49.0478 288.01 47.8238C288.01 46.3838 286.762 45.4718 284.386 44.4878C281.938 43.4558 280.018 42.1838 280.018 39.3998C280.018 37.5278 281.458 34.9598 285.274 34.9598C287.674 34.9598 289.474 36.2078 289.714 36.3758C289.906 36.4958 290.098 36.8318 289.858 37.1918L289.258 38.1038C289.066 38.4158 288.754 38.5598 288.418 38.3438C287.482 37.7438 286.57 37.1438 285.178 37.1438C283.162 37.1438 282.466 38.4158 282.466 39.3038C282.466 40.6718 283.522 41.5118 285.514 42.3278C288.298 43.4558 290.674 44.7758 290.674 47.7038C290.674 50.1998 288.442 52.2398 285.322 52.2398C282.394 52.2398 280.546 50.7038 280.162 50.3438ZM298.355 51.5438V37.4558H294.443C294.179 37.4558 293.987 37.2398 293.987 36.9998V35.6558C293.987 35.4158 294.179 35.1998 294.443 35.1998H304.763C305.027 35.1998 305.219 35.4158 305.219 35.6558V36.9998C305.219 37.2398 305.027 37.4558 304.763 37.4558H300.851V51.5438C300.851 51.7838 300.635 51.9998 300.395 51.9998H298.811C298.571 51.9998 298.355 51.7838 298.355 51.5438ZM309.696 51.5438V35.6558C309.696 35.4158 309.888 35.1998 310.152 35.1998H316.68C319.56 35.1998 321.912 37.4798 321.912 40.3358C321.912 42.5438 320.448 44.3678 318.36 45.2078L321.648 51.3038C321.816 51.6158 321.648 51.9998 321.24 51.9998H319.44C319.176 51.9998 319.032 51.8798 318.936 51.6878L315.792 45.4238H312.168V51.5438C312.168 51.7838 311.952 51.9998 311.712 51.9998H310.152C309.888 51.9998 309.696 51.7838 309.696 51.5438ZM312.216 43.3598H316.488C318.048 43.3598 319.416 42.0398 319.416 40.3838C319.416 38.8238 318.048 37.5278 316.488 37.5278H312.216V43.3598ZM327.103 51.5438V35.6558C327.103 35.4158 327.319 35.1998 327.559 35.1998H329.143C329.383 35.1998 329.599 35.4158 329.599 35.6558V51.5438C329.599 51.7838 329.383 51.9998 329.143 51.9998H327.559C327.319 51.9998 327.103 51.7838 327.103 51.5438ZM335.65 51.5438V35.6558C335.65 35.4158 335.842 35.1998 336.106 35.1998H345.706C345.97 35.1998 346.162 35.4158 346.162 35.6558V36.9998C346.162 37.2398 345.97 37.4558 345.706 37.4558H338.122V42.3518H344.53C344.77 42.3518 344.986 42.5678 344.986 42.8078V44.1518C344.986 44.4158 344.77 44.6078 344.53 44.6078H338.122V49.7678H345.706C345.97 49.7678 346.162 49.9838 346.162 50.2238V51.5438C346.162 51.7838 345.97 51.9998 345.706 51.9998H336.106C335.842 51.9998 335.65 51.7838 335.65 51.5438ZM350.249 50.3438C350.033 50.1518 349.841 49.9838 350.105 49.5758L350.729 48.5918C350.921 48.2798 351.281 48.1838 351.545 48.3998C352.673 49.3358 353.537 50.0558 355.385 50.0558C357.041 50.0558 358.097 49.0478 358.097 47.8238C358.097 46.3838 356.849 45.4718 354.473 44.4878C352.025 43.4558 350.105 42.1838 350.105 39.3998C350.105 37.5278 351.545 34.9598 355.361 34.9598C357.761 34.9598 359.561 36.2078 359.801 36.3758C359.993 36.4958 360.185 36.8318 359.945 37.1918L359.345 38.1038C359.153 38.4158 358.841 38.5598 358.505 38.3438C357.569 37.7438 356.657 37.1438 355.265 37.1438C353.249 37.1438 352.553 38.4158 352.553 39.3038C352.553 40.6718 353.609 41.5118 355.601 42.3278C358.385 43.4558 360.761 44.7758 360.761 47.7038C360.761 50.1998 358.529 52.2398 355.409 52.2398C352.481 52.2398 350.633 50.7038 350.249 50.3438Z" fill="white"/>
<defs>
<linearGradient id="paint0_linear_771_323" x1="0" y1="47.983" x2="55.2253" y2="47.983" gradientUnits="userSpaceOnUse">
<stop stop-color="#5DB8E8"/>
<stop offset="1" stop-color="#D7DF23"/>
</linearGradient>
<linearGradient id="paint1_linear_771_323" x1="35.3591" y1="25.5919" x2="64.3172" y2="25.5919" gradientUnits="userSpaceOnUse">
<stop stop-color="#F4D731"/>
<stop offset="1" stop-color="#5DB8E8"/>
</linearGradient>
</defs>
</svg>
