<svg width="152" height="135" viewBox="0 0 152 135" fill="none" xmlns="http://www.w3.org/2000/svg">
<path d="M99.487 49.857C99.5008 50.2565 99.429 50.6559 99.2745 51.0168C98.7559 52.2482 97.4343 52.9176 96.1294 52.609C92.5207 51.7413 88.6692 51.1958 84.3542 50.9452C81.485 50.7881 78.4419 50.7413 75.3188 50.8074C66.0846 50.8956 54.602 53.1517 42.9786 57.1571C37.0634 59.2232 31.8132 61.8154 27.3824 64.8567C19.5967 70.2588 9.71143 79.3054 6.85318 91.688C6.85042 91.7018 6.84766 91.7156 6.84214 91.7294C6.17724 94.5613 6.18552 97.5199 6.8587 100.352C7.72224 103.966 9.44381 107.266 11.891 109.914C21.2686 119.872 27.7521 121.676 33.361 122.142L33.7969 122.172C43.7704 122.847 56.158 120.809 59.5763 119.475C60.255 119.211 60.9972 119.227 61.6621 119.517C62.3352 119.82 62.8484 120.351 63.1105 121.026C63.5519 122.164 63.1795 123.459 62.2056 124.189C59.2811 126.53 54.7068 127.974 51.3768 128.773C47.277 129.762 42.6117 130.362 38.5809 130.423C38.3188 130.428 38.0511 130.428 37.789 130.428C37.629 130.428 37.4663 130.428 37.3035 130.423C27.5948 130.337 18.5952 127.398 11.96 122.153C4.29013 116.087 0.1545 107.459 0 97.2003V97.1755C0 96.9524 0.00275893 96.7403 0.00827679 96.5392C0.0165536 96.2031 0.0193125 95.8643 0.00827679 95.5282C0.00275893 95.3767 0 95.2307 0 95.0874V95.0626C0.0496607 86.6386 2.95205 77.9418 8.39266 69.9117C14.8844 60.3774 24.72 52.6724 36.8455 47.6339C43.8449 44.7249 51.9837 43.028 61.0385 42.5845C64.5617 42.4109 68.358 42.4274 72.3253 42.6285C76.083 42.7856 80.5552 43.0473 85.1185 43.7883C89.8997 44.5458 94.0519 45.6753 97.8123 47.2372C98.8717 47.6753 99.5339 48.7221 99.487 49.8598V49.857Z" fill="url(#paint0_linear_771_38)"/>
<path d="M108.954 81.1959C107.4 84.4238 105.658 87.5548 103.776 90.5028C102.974 91.7608 101.141 92.2096 99.6921 92.2096C98.835 92.2096 98.0111 92.06 97.3033 91.7801C96.0702 91.2925 95.274 90.054 95.274 88.627C95.274 88.0507 95.4233 87.4744 95.6997 86.9646C97.6683 83.3737 99.5013 79.4725 101.155 75.3552C104.782 66.0178 106.471 56.3451 106.037 47.3956C105.802 43.1148 105.147 38.8174 104.096 34.6308C100.975 21.8161 93.8086 11.6779 84.9254 7.50516L84.8784 7.483C84.8286 7.46083 81.5496 5.77622 77.7701 5.00041C76.819 4.80369 73.3409 4.26062 68.4832 5.47698C68.3754 5.50468 68.0574 5.62383 67.8473 5.70418L67.7229 5.75128C66.5589 6.19737 65.7157 6.52155 64.8005 6.02835C64.2973 5.75959 63.9352 5.28302 63.8107 4.72888L63.6974 4.22183L63.8522 3.72587C64.195 2.65913 65.0079 2.33218 65.312 2.2075C65.3341 2.19918 65.348 2.19364 65.3618 2.1881L65.3811 2.17979C66.5866 1.60347 67.9745 0.968974 69.1882 0.758397C75.3565 -0.701786 81.8261 -0.045119 87.9058 2.65636C102.41 8.87668 110.787 23.8775 113.787 35.8388C114.771 39.7289 115.44 43.9765 115.769 48.4568C116.397 59.645 114.041 70.9608 108.957 81.1959H108.954Z" fill="url(#paint1_linear_771_38)"/>
<path d="M85.1833 107.066C85.0866 107.171 84.9926 107.279 84.9041 107.387C84.7991 107.514 84.8185 107.702 84.9484 107.804C85.5067 108.238 86.1203 108.586 86.767 108.841C86.9163 108.899 87.071 108.954 87.2258 109.004C88.0411 109.261 88.9035 109.377 89.7796 109.335C91.7254 109.247 93.5219 108.407 94.8403 106.975C94.937 106.87 95.031 106.762 95.1194 106.654C95.2245 106.527 95.2051 106.337 95.0752 106.237C94.2295 105.579 93.2649 105.123 92.2395 104.886C91.999 104.83 91.7586 104.786 91.5126 104.756C91.098 104.703 90.6724 104.687 90.2467 104.706C89.2075 104.753 88.2097 105.015 87.3032 105.469C87.165 105.538 87.0296 105.61 86.8969 105.69C86.5956 105.864 86.3082 106.06 86.0346 106.279C85.8798 106.4 85.7278 106.53 85.5841 106.666C85.4459 106.793 85.316 106.925 85.1861 107.066H85.1833Z" fill="white"/>
<path d="M85.1888 106.304C85.3131 106.146 85.4292 105.986 85.537 105.82C85.7333 105.53 85.9046 105.226 86.0539 104.911C86.1202 104.772 86.1838 104.631 86.239 104.488C86.6149 103.548 86.7918 102.534 86.7531 101.492C86.7365 101.063 86.684 100.643 86.5984 100.234C86.5486 99.9909 86.485 99.7532 86.4076 99.5183C86.087 98.515 85.5508 97.5918 84.8239 96.8041C84.7134 96.6825 84.5227 96.6798 84.4038 96.7959C84.3016 96.8954 84.2021 96.9976 84.1081 97.0999C82.7897 98.5343 82.1043 100.394 82.1761 102.34C82.2093 103.219 82.3945 104.068 82.7206 104.858C82.7814 105.007 82.8478 105.157 82.9196 105.3C83.2264 105.925 83.6244 106.505 84.1053 107.028C84.2159 107.149 84.4066 107.152 84.5254 107.036C84.6277 106.937 84.7272 106.834 84.8239 106.729C84.9511 106.591 85.0755 106.447 85.1888 106.301V106.304Z" fill="white"/>
<path d="M82.494 106.395C82.4 106.245 82.1789 106.268 82.1126 106.431C81.7174 107.412 81.9412 108.578 82.7649 109.335C83.5885 110.093 84.7963 110.223 85.7443 109.728C85.9019 109.648 85.9019 109.424 85.7443 109.347C85.0921 109.026 84.4785 108.611 83.9257 108.111C83.9091 108.095 83.8428 108.034 83.8262 108.017C83.3066 107.528 82.8616 106.983 82.4968 106.395H82.494Z" fill="white"/>
<path d="M88.6685 99.2778C88.5054 98.8549 88.627 98.3215 88.978 97.9318C91.2112 95.4553 93.8341 94.2669 95.0917 95.2591C96.341 96.243 95.8158 99.0401 93.964 101.774C93.6794 102.194 93.2095 102.448 92.7673 102.404C91.8359 102.307 90.9569 101.973 90.2052 101.384C89.4976 100.826 88.9835 100.101 88.6657 99.2805L88.6685 99.2778Z" fill="#F4D731"/>
<path d="M148.286 111.947C144.165 121.513 135.074 128.9 123.34 132.216C118.913 133.446 114.237 134.068 109.434 134.068C104.632 134.068 99.7712 133.449 94.952 132.227C85.9351 129.939 77.1612 125.604 69.5803 119.683L69.514 119.628C69.4312 119.558 69.3456 119.486 69.2462 119.406C69.1467 119.322 69.0335 119.228 68.9175 119.128L68.7131 118.959C68.1304 118.475 67.7521 118.159 67.5588 117.99C67.3157 117.781 66.9788 117.473 66.6281 117.148L66.4596 116.995C66.1613 116.718 65.8824 116.462 65.6946 116.296L65.6173 116.226C63.1787 113.894 60.8589 111.308 58.7241 108.551C55.0731 103.805 51.853 98.4288 49.152 92.5695C47.4564 88.854 45.5563 84.4553 44.3384 79.9733C43.0874 75.6136 42.2561 71.1538 41.8695 66.7329C41.8556 66.5386 41.8556 66.2914 41.8639 65.8055V65.7555C41.8722 65.4139 41.8833 64.7863 41.8695 64.6086C41.8004 63.77 42.0573 62.9674 42.5903 62.3454C43.1122 61.7289 43.8524 61.3485 44.6643 61.2846C46.1363 61.143 47.484 62.1094 47.8541 63.5839C48.8869 67.7715 50.138 71.7481 51.5796 75.4053C51.9635 76.43 52.4412 77.5102 52.977 78.7126L53.0875 78.9625C53.1896 79.1875 53.2891 79.4124 53.3857 79.6346C59.6879 92.9583 66.9733 102.847 75.6505 109.859C84.4024 116.887 94.6041 121.483 105.148 123.152C110.694 124.082 115.48 124.168 119.788 123.421C125.825 122.399 131.141 119.9 135.171 116.193C139.482 112.189 142.091 106.19 142.334 99.7395C142.365 98.9786 142.362 98.2122 142.323 97.4513C142.155 93.9913 141.757 90.9117 141.105 88.0376C141.078 87.9126 141.056 87.8043 141.028 87.696L141.023 87.6738C140.716 86.3603 140.954 84.9663 141.677 83.8444C142.395 82.7197 143.511 81.9561 144.814 81.6923L144.845 81.6867C147.446 81.1591 149.971 82.7669 150.6 85.3495C151.39 88.5652 151.741 91.8725 151.644 95.1826C151.813 100.881 150.68 106.524 148.278 111.95L148.286 111.947Z" fill="#F4D833"/>
<path d="M56.0561 29.7065C56.5624 30.4854 56.5354 31.5705 55.9857 32.4487C52.5037 38.019 47.7058 41.1909 44.7572 39.6493C41.8275 38.1184 41.7274 32.4675 44.3348 26.5078C44.7355 25.5892 45.5803 24.9419 46.4874 24.8909C48.4044 24.7808 50.3214 25.1541 52.0786 26.0727C53.7384 26.9402 55.0732 28.1971 56.0561 29.7038V29.7065Z" fill="#F4D731"/>
<path d="M57.8259 14.5318C57.607 14.8614 57.3768 15.183 57.1324 15.491C56.7033 16.0395 56.2344 16.5583 55.7285 17.0366C55.5068 17.2501 55.2738 17.4581 55.035 17.6554C53.4748 18.9632 51.6332 19.9576 49.5898 20.5682C48.7514 20.8195 47.9017 20.9979 47.0491 21.1059C46.5461 21.1708 46.0374 21.2113 45.5343 21.2248C43.3688 21.2924 41.2117 20.9114 39.1882 20.0927C38.8756 19.9657 38.7392 19.6198 38.8813 19.3253C39.0006 19.074 39.1314 18.8227 39.2678 18.5795C41.1321 15.2127 44.2611 12.7268 48.0779 11.5865C49.8001 11.0704 51.5735 10.857 53.327 10.9353C53.6595 10.9488 53.992 10.9758 54.3217 11.011C55.7427 11.165 57.1438 11.5163 58.4824 12.0567C58.795 12.1837 58.9285 12.5295 58.7893 12.8241C58.6671 13.0754 58.5392 13.3267 58.4028 13.5725C58.2209 13.8995 58.0276 14.2183 57.823 14.5291L57.8259 14.5318Z" fill="white"/>
<path d="M59.22 13.7882C59.3445 13.5326 59.4742 13.2799 59.6116 13.0328C59.7698 12.7463 60.1173 12.6509 60.3767 12.8306C61.497 13.6028 62.498 14.5379 63.3538 15.605C63.5534 15.8522 63.7453 16.1077 63.9269 16.3689C64.8942 17.7505 65.6411 19.3231 66.1234 21.0276C67.1918 24.8074 66.8417 28.8203 65.1405 32.3192C65.0161 32.5748 64.8864 32.8247 64.749 33.0718C64.5908 33.3583 64.2433 33.4537 63.9839 33.274C62.2905 32.1058 60.8746 30.5726 59.8113 28.7697C59.5624 28.3513 59.3315 27.916 59.1241 27.4667C58.7688 26.7085 58.4732 25.911 58.2372 25.0798C57.6667 23.0579 57.5007 20.9714 57.7315 18.9327C57.7652 18.621 57.8093 18.3121 57.8637 18.0032C57.983 17.3096 58.149 16.6244 58.3617 15.9505C58.4809 15.5685 58.6132 15.1951 58.7636 14.8216C58.9037 14.4734 59.0541 14.128 59.22 13.7882Z" fill="white"/>
<path d="M60.2506 10.9979C60.2224 10.9811 60.1152 10.9251 60.087 10.911H60.0842C59.1787 10.4457 58.2281 10.115 57.2549 9.92159C57.0207 9.87394 56.9446 9.58243 57.1223 9.41985C58.1999 8.44161 59.8247 8.18654 61.1871 8.9013C62.5383 9.60765 63.2435 11.0596 63.063 12.4807C63.0319 12.7162 62.747 12.8255 62.575 12.6601C61.8867 12.0126 61.111 11.4548 60.2562 10.9979H60.2506Z" fill="white"/>
<path d="M131.586 62.64C131.77 61.9888 131.487 61.2197 130.874 60.7025C126.982 57.4092 122.702 56.0774 120.914 57.7415C119.137 59.3948 120.428 63.4358 123.772 67.174C124.287 67.7502 125.061 68.0476 125.739 67.9109C127.168 67.6189 128.484 66.9838 129.549 65.9923C130.555 65.0571 131.233 63.9048 131.586 62.6426V62.64Z" fill="#F4D731"/>
<path d="M137.157 74.4461C137.308 74.6055 137.456 74.7707 137.596 74.9387C137.761 75.1351 137.742 75.4341 137.55 75.5992C136.721 76.3139 135.807 76.8918 134.836 77.3246C134.611 77.4243 134.38 77.5182 134.15 77.6036C132.926 78.0507 131.62 78.2756 130.286 78.2557C127.329 78.213 124.557 76.9801 122.486 74.7878C122.335 74.6283 122.187 74.4632 122.047 74.2952C121.882 74.0987 121.901 73.7998 122.093 73.6346C123.344 72.5555 124.788 71.7868 126.335 71.3626C126.695 71.2629 127.062 71.1832 127.436 71.1205C128.064 71.0152 128.706 70.9696 129.356 70.9782C130.94 71.001 132.465 71.3626 133.862 72.0317C134.076 72.1342 134.284 72.2423 134.49 72.3591C134.954 72.6182 135.404 72.9143 135.829 73.2446C136.071 73.4296 136.307 73.6261 136.534 73.8339C136.748 74.0275 136.957 74.2325 137.157 74.4461Z" fill="white"/>
<path d="M137.167 73.4135C136.981 73.1807 136.803 72.9451 136.638 72.6986C136.342 72.2657 136.078 71.8137 135.847 71.3453C135.745 71.1371 135.649 70.9261 135.56 70.7125C134.971 69.3071 134.667 67.7731 134.675 66.1951C134.677 65.5459 134.735 64.9049 134.842 64.2803C134.905 63.9105 134.986 63.5461 135.086 63.1873C135.505 61.6504 136.24 60.2232 137.253 58.9959C137.41 58.8069 137.685 58.7932 137.861 58.9631C138.012 59.1083 138.162 59.2562 138.306 59.4123C140.282 61.5217 141.363 64.3132 141.347 67.2663C141.34 68.6004 141.109 69.8961 140.675 71.1097C140.594 71.3398 140.502 71.5672 140.405 71.7891C139.989 72.7506 139.439 73.6519 138.769 74.4655C138.612 74.6545 138.337 74.6682 138.162 74.4984C138.01 74.3532 137.861 74.2025 137.717 74.0491C137.525 73.8436 137.34 73.6327 137.167 73.4163V73.4135Z" fill="white"/>
<path d="M140.684 74.1285C140.781 73.9583 141.024 73.9762 141.104 74.1554C141.573 75.2366 141.364 76.5478 140.488 77.423C139.603 78.3071 138.292 78.4863 137.237 77.9696C137.064 77.883 137.053 77.6351 137.223 77.5425C137.926 77.1602 138.583 76.6763 139.172 76.0968C139.189 76.0759 139.26 76.0072 139.277 75.9893C139.828 75.4248 140.297 74.8006 140.679 74.1285H140.684Z" fill="white"/>
<defs>
<linearGradient id="paint0_linear_771_38" x1="0" y1="86.443" x2="99.4897" y2="86.443" gradientUnits="userSpaceOnUse">
<stop stop-color="#5DB8E8"/>
<stop offset="1" stop-color="#D7DF23"/>
</linearGradient>
<linearGradient id="paint1_linear_771_38" x1="63.6974" y1="46.1044" x2="115.866" y2="46.1044" gradientUnits="userSpaceOnUse">
<stop stop-color="#F4D731"/>
<stop offset="1" stop-color="#5DB8E8"/>
</linearGradient>
</defs>
</svg>
