<?xml version="1.0" encoding="UTF-8"?>
<svg id="Layer_1" xmlns="http://www.w3.org/2000/svg" xmlns:xlink="http://www.w3.org/1999/xlink" version="1.1" viewBox="0 0 1474.079 273.899">
  <!-- Generator: Adobe Illustrator 30.2.1, SVG Export Plug-In . SVG Version: 2.1.1 Build 1)  -->
  <defs>
    <style>
      .st0 {
        fill: url(#linear-gradient1);
      }

      .st1 {
        fill: url(#linear-gradient);
      }

      .st2 {
        fill: #7cb2ab;
      }

      .st3 {
        fill: #fff;
      }
    </style>
    <linearGradient id="linear-gradient" x1="1042.72" y1="2.969" x2="1042.72" y2="273.899" gradientUnits="userSpaceOnUse">
      <stop offset="0" stop-color="#f3d630"/>
      <stop offset="1" stop-color="#c36931"/>
    </linearGradient>
    <linearGradient id="linear-gradient1" x1="1194.329" y1="136.359" x2="1474.079" y2="136.359" gradientUnits="userSpaceOnUse">
      <stop offset="0" stop-color="#9d0463"/>
      <stop offset="1" stop-color="#850e81"/>
    </linearGradient>
  </defs>
  <g>
    <path class="st3" d="M0,15.401c0-3.546,2.837-6.737,6.737-6.737h144.309c3.9,0,6.737,3.191,6.737,6.737v29.074c0,3.546-2.837,6.737-6.737,6.737H46.094v66.658h87.579c3.545,0,6.736,3.191,6.736,6.737v29.074c0,3.546-3.191,6.737-6.736,6.737H46.094v89.706c0,3.545-3.19,6.736-6.736,6.736H6.737c-3.9,0-6.737-3.191-6.737-6.736V15.401Z"/>
    <path class="st3" d="M235.429,80.286l-31.202,6.737c-3.191.709-6.736-1.419-7.091-4.609l-2.128-17.374c-.354-2.837.354-4.964,1.773-6.383l51.058-42.902h24.819c3.546,0,6.383,3.191,6.383,6.736v227.634c0,3.545-2.837,6.736-6.383,6.736h-30.492c-3.9,0-6.737-3.191-6.737-6.736V80.286Z"/>
    <path class="st3" d="M362.005,15.401c0-3.546,2.837-6.737,6.737-6.737h101.406c42.548,0,77.296,34.039,77.296,76.232,0,32.62-21.629,59.213-52.477,71.623l48.576,90.061c2.482,4.609,0,10.282-6.027,10.282h-37.229c-3.191,0-4.965-1.772-5.674-3.191l-47.157-93.96h-39.357v90.415c0,3.545-3.19,6.736-6.736,6.736h-32.62c-3.9,0-6.737-3.191-6.737-6.736V15.401ZM466.248,121.771c18.792,0,35.103-16.31,35.103-36.166,0-18.792-16.311-34.393-35.103-34.393h-57.795v70.559h57.795Z"/>
    <path class="st3" d="M596.72,219.986l18.083-17.374c3.191-2.837,6.382-2.837,9.219,0,1.063,1.418,21.983,19.146,43.612,19.146,19.146,0,37.584-13.828,37.584-33.329,0-18.438-17.02-35.103-48.931-35.103h-19.855c-3.9,0-6.737-2.836-6.737-7.091v-22.338c0-4.609,2.482-7.092,6.737-7.092h19.855c29.074,0,43.967-14.537,43.967-32.62,0-19.501-16.311-32.62-34.394-32.62-18.438,0-29.783,9.928-35.812,17.02-2.481,2.836-6.382,3.19-9.573.354l-17.374-16.311c-2.836-2.482-2.481-6.736,0-9.219,0,0,26.947-31.202,66.659-31.202,41.13,0,75.523,25.175,75.523,64.886,0,27.302-20.565,47.867-36.521,55.313v1.063c16.664,7.091,42.902,26.238,42.902,57.795,0,40.065-32.62,69.141-81.551,69.141-44.321,0-65.949-22.338-73.75-31.557-2.128-2.482-1.773-6.383.354-8.864Z"/>
  </g>
  <path class="st2" d="M869.221,269.176c-2.929,2.952-6.833,4.723-11.227,4.723-12.692,0-26.847-24.791-31.729-37.187-2.929-8.264-5.858-24.201-7.322-41.318-5.858-57.847-8.786-168.225-3.417-181.211,3.905-10.034,15.621-11.215,20.99-11.215,10.252,0,30.753,4.132,37.099,21.839,2.929,7.083,4.882,17.118,5.858,28.334,5.858,57.255,2.929,203.639-10.252,216.035Z"/>
  <path class="st1" d="M1141.645,112.97c-1.952,30.556-3.905,69.26-5.369,114.755,0,21.049-24.895,28.518-33.193,28.518-3.417,0-8.787-.679-13.18-4.753-9.763-8.828-33.193-38.705-56.136-67.903-12.692-16.975-25.872-33.951-39.54-50.247,0,16.296,0,33.951.488,51.606.488,28.518.488,57.038-1.464,71.297-1.465,9.506-6.346,17.655-15.132,17.655-17.574,0-34.659-29.877-36.123-47.532-1.952-24.445,0-165.002,0-200.311,0-18.334,17.085-23.087,24.407-23.087,3.417,0,8.786.679,13.668,5.432,2.929,2.717,11.227,12.901,20.501,25.125,27.336,35.309,54.184,71.297,82.008,105.248.488-13.58,1.952-26.481,2.44-40.062,1.953-33.952,3.906-71.977,6.834-79.446,3.417-10.185,11.228-13.58,17.573-13.58,16.597,0,32.706,16.976,34.659,40.063.976,20.371-1.464,47.531-2.441,67.223Z"/>
  <path class="st0" d="M1468.635,41.926c-6.346,5.313-45.886,32.465-89.33,64.339-34.171,25.382-70.293,52.534-93.723,72.602,29.289,11.215,75.173,30.693,92.747,47.811,7.322,7.083,11.227,16.528,11.715,24.2,1.952,16.528-6.834,21.84-18.061,21.84-11.716,0-30.753-4.132-38.563-7.083-14.644-5.313-28.801-16.528-42.957-24.791-14.155-8.264-37.098-27.152-37.098-27.152,0,0,1.464,31.285,1.464,38.368.976,13.576-9.275,17.117-15.132,17.117-11.228,0-29.289-10.034-36.611-25.38-1.464-2.952-2.929-9.444-3.905-18.888-4.394-41.319-7.81-162.913-.976-203.05,2.44-14.756,14.644-17.118,20.501-17.118,13.18,0,32.705,10.626,34.659,29.514,1.464,11.215-.976,57.255,0,89.719C1283.141,98.001,1394.438,2.969,1440.811.018c10.739-.59,31.729,13.576,33.193,28.923.488,5.313-1.464,10.034-5.37,12.985Z"/>
</svg>