<?xml version="1.0" encoding="UTF-8"?>
<svg id="Layer_1" xmlns="http://www.w3.org/2000/svg" xmlns:xlink="http://www.w3.org/1999/xlink" version="1.1" viewBox="0 0 3876.097 939.08">
  <!-- Generator: Adobe Illustrator 30.3.0, SVG Export Plug-In . SVG Version: 2.1.3 Build 182)  -->
  <defs>
    <style>
      .st0 {
        fill: url(#linear-gradient1);
      }

      .st1 {
        fill: url(#linear-gradient);
      }

      .st2 {
        fill: #fff;
      }
    </style>
    <linearGradient id="linear-gradient" x1="3032.027" y1="355.887" x2="3876.097" y2="355.887" gradientUnits="userSpaceOnUse">
      <stop offset="0" stop-color="#f3d630"/>
      <stop offset="1" stop-color="#a62832"/>
    </linearGradient>
    <linearGradient id="linear-gradient1" x1="2966.948" y1="469.54" x2="3834.88" y2="469.54" gradientUnits="userSpaceOnUse">
      <stop offset="0" stop-color="#9ec597"/>
      <stop offset=".519" stop-color="#5db7e7"/>
      <stop offset="1" stop-color="#186d8c"/>
    </linearGradient>
  </defs>
  <path class="st2" d="M2.7,352.661c-3.35-14.891-4.676-30.986,2.594-45.142,11.18-21.867,50.659-43.861,76.994-47.336,10.628-1.366,21.392-.547,32.164-1.152,15.635-.56,31.445-5.394,46.254-10.668,34.341-12.211,69.549-22.064,104.259-33.186,19.538-5.875,40.058-13.605,60.528-14.635,16.604-.649,26.155,9.059,17.03,23.363-6.957,11.014-20.861,17.92-30.407,24.15-9.991,6.399,12.482-.713,18.369-2.11,8.678-2.313,17.601-4.492,25.97-4.368,21.698-.155,33.134,16.068,16.187,31.583-11.771,10.379-29.47,17.465-44.769,23.439-39.305,17.104-149.853,36.994-161.886,76.217-3.393,13.531,1.078,25.514,5.673,39.194,13.094,37.152,24.53,51.927,67.441,37.215,26.66-8.544,54.817-18.492,82.085-25.982,15.959-4.293,33.587-7.348,49.427-2.436,16.29,4.784,23.123,18.713,9.256,30.916-10.093,8.972-23.868,14.155-36.44,19.35-28.252,11.249-56.787,21.538-84.731,33.654-13.589,6.141-30.302,12.832-35.497,27.27-5.523,16.639,3.884,34.35,9.144,49.964,5.916,15.943,12.044,31.866,18.653,47.678,9.829,23.92,19.439,48.005,27.764,72.424,5.988,19.479,14.147,44.785,1.744,63.434-7.946,11.038-30.949,28.823-43.505,30.46-10.584,1.319-19.359-6.068-30.909-8.739-11.74-3.2-25.914-.394-36.777-4.756-9.802-3.952-15.273-12.15-19.906-21.949-46.01-124.621-93.221-250.124-136.972-375.516-3.595-10.555-7.193-21.19-9.687-32.099l-.054-.237ZM488.928,335.299c1.755-29.595,4.421-59.039,8.143-88.418,5.417-42.773,16.105-99.269,54.917-122.023,14.889-8.729,34.504-9.731,51.895-9.355,19.414.419,41.156,9.104,47.105,29.272,8.81,29.87-9.691,61.548-17.235,89.966-9.286,34.981-11.984,70.553-14.315,106.678-6.921,107.263-9.372,216.766,8.6,321.095,1.425,8.275,3.468,15.953,7.656,22.466,9.387,14.598,39.943,17.534,35.636,39.733-7.052,36.347-41.391,59.128-67.591,80.621-17.463,14.326-48.582,23.995-60.859-3.091-7.027-15.503-10.957-31.507-15.168-47.937-14.111-55.053-28.701-111.427-35.875-167.271-10.568-82.25-9.175-167.519-2.924-251.425.007-.124.01-.187.018-.311ZM491.312,360.371c1.223-.138,2.492-3.676,1.396-4.42-.944-.641-2.977,3.721-1.558,4.396.065.009.098.014.163.023ZM1146.688,557.994c-30.644-55.943-62.542-114.758-97.665-167.728-22.94-31.567-9.39-42.45,22.553-53.858,55.636-22.507,114.302-69.812,78.132-134.667-14.416-22.804-35.92-42.781-58.086-58.314-17.926-10.53-39.795-8.844-59.886-8.183-45.356.809-90.553,4.889-135.83,6.781-37.288-4.274-46.188-9.243-81.482,10.006-46.097,30.086-16.969,251.933-17.185,305.666,3.692,47.647,4.148,96.16,3.579,144.126.331,26.074,3.259,58.029,26.473,73.881,14.166,8.695,35.499,9.573,51.715,4.41,29.516-11.146,11.442-61.539,11.624-85.972-4.741-51.75-.821-100.81-.308-153.437,1.641-20.98-5.094-48.616,10.245-65.197,39.898-28.513,61.698,35.259,74.166,64,15.522,38.268,30.097,78.519,43.43,116.012,10.826,29.664,22.69,61.333,35.579,91.248,10.747,23.031,28.729,68.867,55.203,37.037l.137-.148c17.14-21.333,49.413-32.137,54.963-60.958,3.852-22.552-7.328-45.014-17.356-64.707ZM956.716,295.896c-13.162,4.045-26.53,8.034-39.909,11.236-12.137,2.997-26.667,3.407-33.14-9.14l-.091-.16c-5.63-10.484-6.051-27.362-7.34-40.456-.911-15.681-4.307-34.268,2.633-47.955,8.752-16.296,30.234-16.627,46.655-18.553,28.547-2.017,119.579-13.926,137.574,5.721,9.413,10.017,1.926,25.367-5.288,35.066-23.818,32.342-62.553,52.353-101.095,64.24ZM1171.9,591.145c-.894.673-.269,2.869.864,2.979,1.214-.227.445-3.23-.738-3.025l-.126.047ZM1416.648,834.105c-33.528,5.122-67.167-4.749-99.433-13.128-36.087-9.884-75.295-20.534-97.918-52.132-9.822-12.251-23.951-42.67-4.234-51.102,14.761-4.592,32.08,10.217,45.032,17.225,20.943,12.451,45.281,18.959,69.273,22.03,115.505,16.293,224.607-117.571,173.923-227.547-37.661-92.017-138.423-69.288-216.436-54.501-19.241,2.904-41.251,7.821-58.359-1.741-13.634-7.66-13.198-22.882-2.45-34.331,3.341-3.8,7.476-7.288,11.966-10.585,60.896-42.045,138.62-97.706,167.288-161.793,18.452-41.318-.648-70.141-46.494-70.355-34.744-1.057-67.564,11.845-100.57,20.615-12.358,2.69-30.267,4.143-36.155-9.715-6.636-18.033,2.243-44.461,19.668-55.412,10.033-6.677,23.412-10.501,35.323-13.89,24.635-6.702,47.743-11.461,72.105-15.43,23.951-3.848,47.608-6.224,71.818-1.736,128.712,23.894,153.744,143.83,61.745,225.253-10.642,10.541-35.076,25.879-29.57,42.644,4.979,11.534,17.111,16.686,29.813,23.351,43.918,20.439,90.892,41.093,118.749,82.843,86.292,126.062-40.44,309.672-184.807,339.395l-.277.042Z"/>
  <g id="QlI6al.tif">
    <path class="st1" d="M3876.065,525.606c.627,10.075-8.265,16.223-12.516,24.535-9.175,16.939-13.417,29.438-31.576,41.973-27.335,19.303-42.715,21.959-49.905,56.914-2.653,10.004-5.795,20.84-13.572,28.022-17.991,16.161-40.149-1.996-49.235-19.354-13.128-23.32-19.591-50.89-30.426-77.102-9.637-23.358-22.942-44.561-37.334-65.777-3.204-4.617-7.242-9.936-10.431-13.381-4.268-4.543-9.137-9.049-10.461-5.13-.851,2.981,1.453,10.646,4.708,19.383,1.383,4.265,8.865,21.645,4.205,21.758-1.866-.56-3.302-2.276-4.742-3.759-7.327-7.825-15.264-22.869-27.847-25.165-16.935-3.98-24.388,12.629-31.923,24.591-12.244,21.793-37.14,33.108-55.096,48.937-10.192,8.714-18.339,19.652-29.244,27.552-10.252,7.524-21.339,12.326-33.342,16.967-10.951,4.164-22.085,7.556-33.685,9.834-54.418,11.861-68.58-17.195-103.318-46.945-11.056-8.701-27.037-17.981-42.507-19.839-14.276-1.95-24.607,5.853-32.816,16.444-11.179,15.367-26.409,26.79-42.305,36.845-4.247,2.772-8.49,5.6-13.083,7.691-17.369,8.537-35.427-.046-48.165-14.247-23.237-26.164-36.374-61.134-50.242-92.588-3.217-7.403-6.471-14.695-9.766-21.982-25.662-53.953-44.605-112.03-47.618-171.924-.633-12.345-1.686-25.612-1.792-37.606-.167-13.523,3.725-26.024,16.627-31.758,7.093-3.392,14.612-5.083,22.4-6.844,45.993-9.194,100.159-29.304,145.102-25.27,27.653,1.623,42.369,28.078,56.34,21.497,5.252-2.374,9.802-8.935,15.017-14.817,5.902-6.958,12.198-13.675,16.434-21.685,5.441-9.244,5.229-23.407,8.862-32.159,2.14-4.794,6.581-7.329,11.404-8.826,17.072-3.952,17.981-19.512,29.635-34.432,21.746-30.246,69.85-22.808,99.355-34.322,6.645-2.494,12.271-7.719,12.866-15.063,1.031-10.77-2.21-22.336,3.876-32.454,14.88-26.478,70.697-28.17,99.077-27.588,64.716.955,94.55,60.198,131.714,106.009,17.347,21.26,38.432,39.378,53.192,62.864,38.393,59.102,68.615,123.378,83.694,191.355,5.127,23.367,9.368,46.952,15.853,70.118,3.731,13.519,8.157,26.836,13.473,39.419,3.468,8.656,8.132,18.057,9.103,27.161l.01.148Z"/>
  </g>
  <g id="SGyGon.tif">
    <path class="st0" d="M3834.748,475.54c-.93,17.56-9.47,30.8-22.84,35.34-6.11,2.07-21.99,4.95-37.39-13.06l-.15-.19c-6.65-7.97-11.9-16.32-16.98-24.4-4.64-7.39-9.02-14.36-14.02-20.29-37.21-43.17-82.48-80.37-129.49-117.84-49.4-38.25-105.65-77.521-167.71-117.09,48.07,58.53,86.54,114.84,117.229,171.5,16.97,31.69,27.98,58.79,34.69,85.36,11.15,42.89,7.6,76.48-10.84,102.69-19.79,28.48-58.18,60.36-87.47,72.66-29.82,12.74-62.1,11.5-90.59,10.4l-1.25-.06c-5.12-.37-10.08-.87-14.88-1.36-8.26-.83-16.06-1.61-23.72-1.64-2.92-.01-5.72-.13-8.19-.24-3.53-.16-6.53-.29-8.9-.07l-.09.29c-1.14,3.76-2.31,7.64-3.95,11.88l-.23.55c-10.61,25.15-34.09,49.13-64.4,65.79-34.7,19.07-69.53,4.51-97.52-7.19l-1.81-.76c-8.7-3.58-16.01-6.7-22.79-9.71,5.86,8.82,12.39,17.34,19.25,26.29,5.01,6.52,10.18,13.26,15.08,20.16l.22.32c1.21,1.76,2.42,3.53,3.63,5.3,16.62,24.21,33.8,49.25,43.09,79.97l.29.87c5.63,17.15,12.64,38.49,7.85,59.4l-.11.48c-4.07,15.97-14.96,26.45-29.14,28.04l-1.66.15-1.02-.01c-10.16-.13-24.5-4.36-35.13-23.78-5.23-9.55-8.42-20.49-11.24-30.16-1.47-5.03-2.99-10.23-4.2-12.9l-.48-1.13c-9.71-25.24-30.16-45.17-51.8-66.28-1.89-1.85-3.78-3.69-5.66-5.53-8.55-8.08-17.21-16.2-25.59-24.05-20.68-19.37-42.06-39.41-62.84-59.96-12.53-12.43-26.7-26.49-39.02-41.94-28.33-34.19-12.2-60.98-3.73-71.1,8.31-10.24,20.17-18.45,29.6-24.48,14.13-9.12,27.85-14.19,41.87-15.45,16.52-1.78,37.32,1.15,63.58,8.97.87.2,1.81.44,2.87.75-.6-3.88-.15-7.25.74-10.02-32.57-19.35-64.47-39.73-73.08-66.82l-.15-.48c-3.57-12.3-.98-25.58,7.3-37.4,14.02-20,42.65-33.69,61.13-34.89l.23-.02c14.13-.76,26.31,4.22,35.33,8.65l.27.13c12.38,6.3,24.05,13.71,35.33,20.87,6.92,4.39,13.45,8.54,20.12,12.44l.45.27c12.42,7.7,25.89,15.48,41.17,23.78l.15.08c15.48,8.59,33.52,18.27,51.64,24.58l.09.04c3.91,1.38,7.84,2.75,11.8,4.12,13.59,4.74,27.65,9.63,41.05,15.21,11.22,4.6,24.62,9.79,38.99,13.46,17.98,4.23,37.13,8.22,55.39,8.87,19.15.69,32.95-2.5,41.01-9.48,10.74-9.87,20.68-26.52,19.01-41.81-7.99-44.12-43.15-99.19-71.43-143.47-2.91-4.57-5.75-9.02-8.49-13.33-54.27-85.01-126.4-165.73-214.34-239.86l-.91-.81c-2.43-2.31-5.79-5.05-9.34-7.95-9.41-7.68-20.08-16.38-27.15-27.51-10.66-16.79-10.14-34.77,1.47-50.62l.71-.91c12.21-14.85,28.65-21.26,47.56-18.54,13.59,1.95,26.21,8.25,37.34,13.8,1.42.71,2.83,1.41,4.22,2.1l.21.1c6.48,3.27,13.14,6.55,19.59,9.72,10.84,5.33,22.05,10.85,33.11,16.69,13.74,7.33,26.08,14.7,38.01,21.82,9.32,5.56,18.11,10.81,27.57,16.09l1.18.71c3.73,2.42,7.47,4.87,11.23,7.33,16.09,10.5,32.71,21.37,49.24,31.11,9.41,5.39,19.14,10.7,28.54,15.83,8.8,4.81,17.9,9.77,26.93,14.9l.48.29c13.81,8.36,27.09,17.729,39.93,26.79,6.67,4.7,12.98,9.15,19.33,13.45,53.92,35.46,99.91,69.97,140.59,105.49l.13.12c7,6.21,14.3,12.51,21.36,18.6,37,31.91,75.26,64.91,100.02,110.61l.05.1c9.44,17.67,13.4,33.33,12.47,49.28Z"/>
  </g>
  <path class="st2" d="M1907.179,165.698c.668,31.132,1.802,62.933,2.043,93.797-10.403,144.768-4.802,299.193-8.869,437.772-6.669,68.479,31.075,100.308-31.519,123.443-42.491,14.578-113.361,46.783-146.359,13.43-11.337-18.714,4.98-40.149,18.886-47.377,12.828-7.653,28.274-10.572,42.668-14.39,5.949-2.071,15.186-3.203,18.718-8.866-.297-3.098-3.892-3.766-5.928-5.049-10.286-4.367-26.919-10.886-30.622-27.313-6.868-26.818,1.294-59.503,4.031-87.089,12.608-94.098,3.961-189.423-.485-284.003-2.601-51.983,12.252-110.068-2.826-160.247-5.947-15.771-17.188-29.93-20.204-46.741-4.752-23.398,11.424-43.586,28.555-51.02,31.512-13.309,92.88-20.087,117.642,6.487,11.803,14.767,13.182,36.689,14.254,56.823l.015.342ZM1891.16,666.006c-2.092.712-.573,6.321,1.068,6.759,2.489-.076.889-6.531-.898-6.752l-.17-.007ZM2510.998,336.013c-.206.725.491,4.052,1.606,2.952.301-.452.311-1.556.021-2.455-.333-1.246-1.276-2.048-1.588-.728l-.039.231ZM2444.43,133.162c38.564,5.725,53.771,29.745,48.231,67.131-7.269,49.058-12.058,102.958-13.581,152.083-2.047,66.02-4.505,137.686-2.727,205.245.71,26.993-.796,55.077-2.094,81.6-1.415,28.917-10.402,65.921-45.52,69.084-28.862,2.6-61.692-5.045-81.735-25.857-42.53-44.161-53.278-115.774-84.496-166.617-28.314-46.113-54.829-99.55-80.95-148.333-3.821-7.136-16.233-27.333-20.554-22.833-6.628,6.904-2.01,33.272-1.142,49.614,1.99,37.436,6.919,76.326,11.786,112.824,8.459,63.435,10.753,131.908,14.77,197.007,1.148,18.607.062,41.271-11.791,56.087-12.979,16.225-42.563,35.042-62.547,29.361-13.771-3.915-17.102-26.455-18.365-39.875-18.046-191.674-50.47-387.811-27.784-579.77,4.733-40.053,47.228-47.575,76.732-28.051,29.396,19.452,39,60.453,53.412,89.859,16.399,33.462,30.946,70.337,48.012,103.256,16.731,32.272,34.241,66.862,51.852,98.867,12.404,22.542,28.604,45.022,41.609,66.59,18.671,30.965,20.574-3.921,19.687-19.814-5.054-90.483-.353-181.233,17.234-269.987,8.582-43.311,14.364-86.324,69.733-77.504.091.013.137.019.228.032ZM2265.477,380.228c.302-.119.331-1.645-.113-1.409-.302.161-.365,1.526-.003,1.458.046-.02.069-.03.116-.05ZM2476.466,358.687c-.219.686.546,3.874,1.431,2.868.307-.35.318-1.49.1-2.341-.298-1.162-1.146-1.996-1.486-.746-.018.088-.027.131-.044.219ZM3074.515,649.68c.326,12.551-6.242,26.088-16.015,33.521-8.434,6.318-18.943,8.201-29.262,9.854-20.483,3.165-37.067,5.531-53.28-10.479-20.652-20.531-38.176-44.251-58.492-64.926-53.229-54.629-109.846-116.758-166.459-167.542-23.436-20.065-19.985,16.064-20.139,30.172.434,31.826-2.194,63.691-3.562,95.325-.833,19.716-1.1,39.375.299,59.177.598,9.918,1.797,20.373.179,30.143-2.569,19.602-20.839,21.15-38.517,17.701-9.984-1.807-20.353-4.36-28.392-10.808-13.384-10.645-14.759-30.202-15.709-46.418-2.394-59.938-2.746-121.951-10.597-181.628-4.865-55.513-8.693-115.875-9.894-172.275-.502-31.772-1.24-67.382,2.668-97.921.883-5.959,2.199-11.568,4.152-15.485,7.005-14.131,16.472,2.181,24.057,7.645,2.811,2.087,6.317,2.993,9.714,2.164,6.619-1.585,13.459-6.279,20.855-4.794,7.907,1.614,13.821,7.554,18.407,14.113,12.227,18.445,11.195,41.977,12.628,63.258.986,23.8,1.742,47.318,2.914,71.145.869,9.801.889,25.582,11.596,29.203,6.956,1.972,16.268-4.216,22.499-8.847,63.264-49.537,129.876-102.41,193.686-151.291,12.724-9.299,31.676-26.384,47.273-16.37,18.773,18.918-24.536,50.133-37.079,62.788-29.93,27.082-61.004,53.03-92.281,78.771-9.512,7.995-18.832,16.056-27.867,24.624-8.38,8.432-20.4,18.682-18.741,31.113,2.213,12.973,15.893,25.35,24.636,35.678,12.651,14.044,26.19,27.841,39.186,41.889,25.934,30.109,54.585,57.944,84.423,83.958,20.789,17.661,37.189,39.976,55.57,59.699,16.784,19.239,50.262,39.825,51.541,66.651l.006.193ZM2840.222,395.84c-.578-.344-1.252.632-.611.977.479.271,1.153-.412.757-.86l-.146-.117ZM2841.333,396.969c-.635.29-.455,1.989.36,1.311.34-.308.402-1.381-.215-1.361l-.144.05ZM2844.923,401.297c0,.124-.014,1.567.005,1.671.002-.177.003-.079.004-.841-.001-.179,0-.798-.007-.873l-.002.044ZM2955.222,512.501c-1.312.005-.977,2.022.264,1.522.664-.3.621-1.274-.074-1.491l-.19-.03ZM2964.045,523.726c-.076.965,2.168,1.811,2.838,1.135.528-.87-2.342-2.011-2.785-1.243l-.053.109Z"/>
</svg>